<svg width="100" height="135" viewBox="0 0 100 135" fill="none" xmlns="http://www.w3.org/2000/svg">
<path d="M9.88068 131V119.364H14.733C15.6042 119.364 16.3333 119.487 16.9205 119.733C17.5114 119.979 17.9545 120.324 18.25 120.767C18.5492 121.21 18.6989 121.723 18.6989 122.307C18.6989 122.75 18.6061 123.146 18.4205 123.494C18.2348 123.839 17.9792 124.125 17.6534 124.352C17.3277 124.58 16.9508 124.739 16.5227 124.83V124.943C16.9924 124.966 17.4261 125.093 17.8239 125.324C18.2254 125.555 18.5473 125.877 18.7898 126.29C19.0322 126.699 19.1534 127.184 19.1534 127.744C19.1534 128.369 18.9943 128.928 18.6761 129.42C18.358 129.909 17.8977 130.295 17.2955 130.58C16.6932 130.86 15.9621 131 15.1023 131H9.88068ZM12.6932 128.733H14.4318C15.0417 128.733 15.4905 128.617 15.7784 128.386C16.0701 128.155 16.2159 127.833 16.2159 127.42C16.2159 127.121 16.1458 126.864 16.0057 126.648C15.8655 126.428 15.6667 126.259 15.4091 126.142C15.1515 126.021 14.8428 125.96 14.483 125.96H12.6932V128.733ZM12.6932 124.148H14.25C14.5568 124.148 14.8295 124.097 15.0682 123.994C15.3068 123.892 15.4924 123.744 15.625 123.551C15.7614 123.358 15.8295 123.125 15.8295 122.852C15.8295 122.462 15.6913 122.155 15.4148 121.932C15.1383 121.708 14.7652 121.597 14.2955 121.597H12.6932V124.148ZM24.8995 131.165C23.9829 131.165 23.195 130.977 22.5359 130.602C21.8806 130.223 21.3749 129.697 21.0189 129.023C20.6666 128.345 20.4905 127.559 20.4905 126.665C20.4905 125.767 20.6666 124.981 21.0189 124.307C21.3749 123.629 21.8806 123.102 22.5359 122.727C23.195 122.348 23.9829 122.159 24.8995 122.159C25.8162 122.159 26.6022 122.348 27.2575 122.727C27.9166 123.102 28.4223 123.629 28.7745 124.307C29.1306 124.981 29.3086 125.767 29.3086 126.665C29.3086 127.559 29.1306 128.345 28.7745 129.023C28.4223 129.697 27.9166 130.223 27.2575 130.602C26.6022 130.977 25.8162 131.165 24.8995 131.165ZM24.9166 129.068C25.2499 129.068 25.5321 128.966 25.7632 128.761C25.9942 128.557 26.1704 128.273 26.2916 127.909C26.4166 127.545 26.4791 127.125 26.4791 126.648C26.4791 126.163 26.4166 125.739 26.2916 125.375C26.1704 125.011 25.9942 124.727 25.7632 124.523C25.5321 124.318 25.2499 124.216 24.9166 124.216C24.5719 124.216 24.2802 124.318 24.0416 124.523C23.8067 124.727 23.6268 125.011 23.5018 125.375C23.3806 125.739 23.32 126.163 23.32 126.648C23.32 127.125 23.3806 127.545 23.5018 127.909C23.6268 128.273 23.8067 128.557 24.0416 128.761C24.2802 128.966 24.5719 129.068 24.9166 129.068ZM35.1258 131.165C34.2091 131.165 33.4212 130.977 32.7622 130.602C32.1069 130.223 31.6012 129.697 31.2451 129.023C30.8928 128.345 30.7167 127.559 30.7167 126.665C30.7167 125.767 30.8928 124.981 31.2451 124.307C31.6012 123.629 32.1069 123.102 32.7622 122.727C33.4212 122.348 34.2091 122.159 35.1258 122.159C36.0425 122.159 36.8284 122.348 37.4837 122.727C38.1428 123.102 38.6485 123.629 39.0008 124.307C39.3569 124.981 39.5349 125.767 39.5349 126.665C39.5349 127.559 39.3569 128.345 39.0008 129.023C38.6485 129.697 38.1428 130.223 37.4837 130.602C36.8284 130.977 36.0425 131.165 35.1258 131.165ZM35.1428 129.068C35.4762 129.068 35.7584 128.966 35.9894 128.761C36.2205 128.557 36.3966 128.273 36.5178 127.909C36.6428 127.545 36.7053 127.125 36.7053 126.648C36.7053 126.163 36.6428 125.739 36.5178 125.375C36.3966 125.011 36.2205 124.727 35.9894 124.523C35.7584 124.318 35.4762 124.216 35.1428 124.216C34.7981 124.216 34.5065 124.318 34.2678 124.523C34.033 124.727 33.8531 125.011 33.7281 125.375C33.6069 125.739 33.5462 126.163 33.5462 126.648C33.5462 127.125 33.6069 127.545 33.7281 127.909C33.8531 128.273 34.033 128.557 34.2678 128.761C34.5065 128.966 34.7981 129.068 35.1428 129.068ZM46.2043 122.273V124.318H40.6986V122.273H46.2043ZM41.852 120.182H44.6305V128.256C44.6305 128.426 44.657 128.564 44.71 128.67C44.7668 128.773 44.8483 128.847 44.9543 128.892C45.0604 128.934 45.1873 128.955 45.335 128.955C45.4411 128.955 45.5528 128.945 45.6702 128.926C45.7914 128.903 45.8823 128.884 45.943 128.869L46.3634 130.875C46.2308 130.913 46.0433 130.96 45.8009 131.017C45.5623 131.074 45.2763 131.11 44.943 131.125C44.2914 131.155 43.7327 131.08 43.2668 130.898C42.8047 130.712 42.4505 130.424 42.2043 130.034C41.9619 129.644 41.8445 129.153 41.852 128.562V120.182ZM54.2317 122.852C54.1938 122.436 54.0253 122.112 53.726 121.881C53.4306 121.646 53.0082 121.528 52.459 121.528C52.0953 121.528 51.7923 121.576 51.5499 121.67C51.3075 121.765 51.1256 121.896 51.0044 122.062C50.8832 122.225 50.8207 122.413 50.8169 122.625C50.8094 122.799 50.8434 122.953 50.9192 123.085C50.9987 123.218 51.1124 123.335 51.2601 123.438C51.4116 123.536 51.5934 123.623 51.8056 123.699C52.0177 123.775 52.2563 123.841 52.5215 123.898L53.5215 124.125C54.0972 124.25 54.6048 124.417 55.0442 124.625C55.4874 124.833 55.8586 125.081 56.1578 125.369C56.4609 125.657 56.69 125.989 56.8453 126.364C57.0006 126.739 57.0802 127.159 57.084 127.625C57.0802 128.36 56.8946 128.991 56.5272 129.517C56.1597 130.044 55.6313 130.447 54.9419 130.727C54.2563 131.008 53.4287 131.148 52.459 131.148C51.4855 131.148 50.637 131.002 49.9135 130.71C49.19 130.419 48.6275 129.975 48.226 129.381C47.8245 128.786 47.6181 128.034 47.6067 127.125H50.2999C50.3226 127.5 50.423 127.812 50.601 128.062C50.7791 128.312 51.0234 128.502 51.334 128.631C51.6484 128.759 52.012 128.824 52.4249 128.824C52.8037 128.824 53.1256 128.773 53.3908 128.67C53.6597 128.568 53.8662 128.426 54.0101 128.244C54.1541 128.062 54.2279 127.854 54.2317 127.619C54.2279 127.4 54.1597 127.212 54.0272 127.057C53.8946 126.898 53.69 126.761 53.4135 126.648C53.1408 126.53 52.7923 126.422 52.3681 126.324L51.1522 126.04C50.1446 125.809 49.351 125.436 48.7715 124.92C48.1919 124.402 47.9041 123.701 47.9078 122.818C47.9041 122.098 48.0972 121.468 48.4874 120.926C48.8775 120.384 49.4173 119.962 50.1067 119.659C50.7961 119.356 51.5821 119.205 52.4647 119.205C53.3662 119.205 54.1484 119.358 54.8112 119.665C55.4779 119.968 55.995 120.394 56.3624 120.943C56.7298 121.492 56.9173 122.129 56.9249 122.852H54.2317ZM63.7506 122.273V124.318H58.2449V122.273H63.7506ZM59.3983 120.182H62.1767V128.256C62.1767 128.426 62.2032 128.564 62.2562 128.67C62.3131 128.773 62.3945 128.847 62.5006 128.892C62.6066 128.934 62.7335 128.955 62.8812 128.955C62.9873 128.955 63.0991 128.945 63.2165 128.926C63.3377 128.903 63.4286 128.884 63.4892 128.869L63.9097 130.875C63.7771 130.913 63.5896 130.96 63.3472 131.017C63.1085 131.074 62.8225 131.11 62.4892 131.125C61.8377 131.155 61.279 131.08 60.8131 130.898C60.3509 130.712 59.9968 130.424 59.7506 130.034C59.5081 129.644 59.3907 129.153 59.3983 128.562V120.182ZM65.4882 131V122.273H68.187V123.864H68.278C68.437 123.288 68.6965 122.86 69.0564 122.58C69.4162 122.295 69.8348 122.153 70.312 122.153C70.4408 122.153 70.5734 122.163 70.7098 122.182C70.8461 122.197 70.973 122.222 71.0905 122.256V124.67C70.9579 124.625 70.7836 124.589 70.5677 124.562C70.3556 124.536 70.1662 124.523 69.9995 124.523C69.67 124.523 69.3726 124.597 69.1075 124.744C68.8461 124.888 68.6397 125.091 68.4882 125.352C68.3405 125.61 68.2666 125.913 68.2666 126.261V131H65.4882ZM74.6747 131.148C74.1178 131.148 73.6235 131.055 73.1917 130.869C72.7637 130.68 72.4247 130.396 72.1747 130.017C71.9284 129.634 71.8053 129.155 71.8053 128.58C71.8053 128.095 71.8906 127.686 72.061 127.352C72.2315 127.019 72.4663 126.748 72.7656 126.54C73.0648 126.331 73.4095 126.174 73.7997 126.068C74.1898 125.958 74.6065 125.884 75.0497 125.847C75.5459 125.801 75.9455 125.754 76.2485 125.705C76.5516 125.652 76.7713 125.578 76.9076 125.483C77.0478 125.384 77.1178 125.246 77.1178 125.068V125.04C77.1178 124.748 77.0175 124.523 76.8167 124.364C76.6159 124.205 76.3451 124.125 76.0042 124.125C75.6368 124.125 75.3413 124.205 75.1178 124.364C74.8944 124.523 74.7523 124.742 74.6917 125.023L72.1292 124.932C72.205 124.402 72.4 123.928 72.7144 123.511C73.0326 123.091 73.4682 122.761 74.0213 122.523C74.5781 122.28 75.2466 122.159 76.0269 122.159C76.5838 122.159 77.097 122.225 77.5667 122.358C78.0364 122.487 78.4455 122.676 78.794 122.926C79.1425 123.172 79.4114 123.475 79.6008 123.835C79.794 124.195 79.8906 124.606 79.8906 125.068V131H77.2769V129.784H77.2088C77.0534 130.08 76.8546 130.33 76.6122 130.534C76.3735 130.739 76.0913 130.892 75.7656 130.994C75.4436 131.097 75.08 131.148 74.6747 131.148ZM75.5326 129.33C75.8319 129.33 76.1008 129.269 76.3394 129.148C76.5819 129.027 76.775 128.86 76.919 128.648C77.0629 128.432 77.1349 128.182 77.1349 127.898V127.068C77.0553 127.11 76.9588 127.148 76.8451 127.182C76.7353 127.216 76.6141 127.248 76.4815 127.278C76.3489 127.309 76.2125 127.335 76.0724 127.358C75.9322 127.381 75.7978 127.402 75.669 127.42C75.4076 127.462 75.1841 127.527 74.9985 127.614C74.8167 127.701 74.6766 127.814 74.5781 127.955C74.4834 128.091 74.436 128.254 74.436 128.443C74.436 128.731 74.5383 128.951 74.7428 129.102C74.9512 129.254 75.2144 129.33 75.5326 129.33ZM81.9094 134.273V122.273H84.6594V123.767H84.7447C84.8583 123.502 85.0193 123.246 85.2276 123C85.4397 122.754 85.7087 122.553 86.0344 122.398C86.364 122.239 86.7579 122.159 87.2162 122.159C87.8223 122.159 88.3886 122.318 88.9151 122.636C89.4454 122.955 89.8734 123.445 90.1992 124.108C90.525 124.771 90.6878 125.616 90.6878 126.642C90.6878 127.631 90.5306 128.458 90.2162 129.125C89.9056 129.792 89.4852 130.292 88.9549 130.625C88.4284 130.958 87.8431 131.125 87.1992 131.125C86.7598 131.125 86.3791 131.053 86.0572 130.909C85.7352 130.765 85.4644 130.576 85.2447 130.341C85.0287 130.106 84.8621 129.854 84.7447 129.585H84.6878V134.273H81.9094ZM84.631 126.636C84.631 127.106 84.6935 127.515 84.8185 127.864C84.9473 128.212 85.131 128.483 85.3697 128.676C85.6121 128.866 85.9019 128.96 86.239 128.96C86.5799 128.96 86.8697 128.866 87.1083 128.676C87.3469 128.483 87.5269 128.212 87.6481 127.864C87.7731 127.515 87.8356 127.106 87.8356 126.636C87.8356 126.167 87.7731 125.759 87.6481 125.415C87.5269 125.07 87.3469 124.803 87.1083 124.614C86.8734 124.424 86.5837 124.33 86.239 124.33C85.8981 124.33 85.6083 124.422 85.3697 124.608C85.131 124.794 84.9473 125.059 84.8185 125.403C84.6935 125.748 84.631 126.159 84.631 126.636Z" fill="white"/>
<rect width="100" height="100" rx="8" fill="url(#paint0_linear_151_65)"/>
<path fill-rule="evenodd" clip-rule="evenodd" d="M28.955 20C24.845 20 21.806 23.597 21.944 27.494C22.073 31.244 21.905 36.095 20.684 40.052C19.454 44.018 17.384 46.532 14 46.856V50.501C17.384 50.822 19.457 53.336 20.681 57.305C21.905 61.262 22.073 66.113 21.941 69.86C21.806 73.76 24.845 77.357 28.955 77.357H71.051C75.161 77.357 78.2 73.76 78.062 69.86C77.933 66.113 78.101 61.262 79.322 57.305C80.549 53.336 82.616 50.825 86 50.501V46.856C82.616 46.532 80.549 44.018 79.322 40.052C78.101 36.092 77.933 31.241 78.062 27.494C78.2 23.594 75.158 20 71.051 20H28.955ZM62.81 55.307C62.81 60.677 58.805 63.932 52.16 63.932H40.847C40.5232 63.932 40.2126 63.8034 39.9836 63.5744C39.7546 63.3454 39.626 63.0348 39.626 62.711V34.643C39.6268 34.3197 39.7558 34.0099 39.9847 33.7816C40.2136 33.5532 40.5237 33.425 40.847 33.425H52.097C57.638 33.425 61.277 36.425 61.277 41.036C61.277 44.27 58.829 47.165 55.712 47.675V47.843C59.957 48.308 62.813 51.248 62.813 55.307H62.81ZM50.93 37.292H44.48V46.406H49.913C54.113 46.406 56.429 44.714 56.429 41.69C56.429 38.858 54.437 37.292 50.93 37.292ZM44.48 50.021V60.062H51.17C55.541 60.062 57.86 58.307 57.86 55.01C57.86 51.71 55.478 50.021 50.888 50.021H44.48Z" fill="white"/>
<defs>
<linearGradient id="paint0_linear_151_65" x1="100" y1="50" x2="-8.43047e-07" y2="50" gradientUnits="userSpaceOnUse">
<stop stop-color="#4961DC"/>
<stop offset="1" stop-color="#6A98F0"/>
</linearGradient>
</defs>
</svg>
