<svg width="100" height="135" viewBox="0 0 100 135" fill="none" xmlns="http://www.w3.org/2000/svg">
<path d="M44.4432 123.58H41.6023C41.5644 123.288 41.4867 123.025 41.3693 122.79C41.2519 122.555 41.0966 122.354 40.9034 122.188C40.7102 122.021 40.4811 121.894 40.2159 121.807C39.9545 121.716 39.6648 121.67 39.3466 121.67C38.7822 121.67 38.2955 121.809 37.8864 122.085C37.4811 122.362 37.1686 122.761 36.9489 123.284C36.733 123.807 36.625 124.439 36.625 125.182C36.625 125.955 36.7348 126.602 36.9545 127.125C37.178 127.644 37.4905 128.036 37.892 128.301C38.2973 128.562 38.7765 128.693 39.3295 128.693C39.6402 128.693 39.9223 128.653 40.1761 128.574C40.4337 128.494 40.6591 128.379 40.8523 128.227C41.0492 128.072 41.2102 127.884 41.3352 127.665C41.464 127.441 41.553 127.189 41.6023 126.909L44.4432 126.926C44.3939 127.441 44.2443 127.949 43.9943 128.449C43.7481 128.949 43.4091 129.405 42.9773 129.818C42.5455 130.227 42.0189 130.553 41.3977 130.795C40.7803 131.038 40.072 131.159 39.2727 131.159C38.2197 131.159 37.2765 130.928 36.4432 130.466C35.6136 130 34.9583 129.322 34.4773 128.432C33.9962 127.542 33.7557 126.458 33.7557 125.182C33.7557 123.902 34 122.816 34.4886 121.926C34.9773 121.036 35.6383 120.36 36.4716 119.898C37.3049 119.436 38.2386 119.205 39.2727 119.205C39.9773 119.205 40.6288 119.303 41.2273 119.5C41.8258 119.693 42.3523 119.977 42.8068 120.352C43.2614 120.723 43.6307 121.18 43.9148 121.722C44.1989 122.263 44.375 122.883 44.4432 123.58ZM52.6623 122.852C52.6245 122.436 52.4559 122.112 52.1566 121.881C51.8612 121.646 51.4388 121.528 50.8896 121.528C50.526 121.528 50.2229 121.576 49.9805 121.67C49.7381 121.765 49.5563 121.896 49.4351 122.062C49.3138 122.225 49.2513 122.413 49.2476 122.625C49.24 122.799 49.2741 122.953 49.3498 123.085C49.4294 123.218 49.543 123.335 49.6907 123.438C49.8423 123.536 50.0241 123.623 50.2362 123.699C50.4483 123.775 50.687 123.841 50.9521 123.898L51.9521 124.125C52.5279 124.25 53.0354 124.417 53.4748 124.625C53.918 124.833 54.2892 125.081 54.5885 125.369C54.8915 125.657 55.1207 125.989 55.276 126.364C55.4313 126.739 55.5108 127.159 55.5146 127.625C55.5108 128.36 55.3252 128.991 54.9578 129.517C54.5904 130.044 54.062 130.447 53.3726 130.727C52.687 131.008 51.8593 131.148 50.8896 131.148C49.9161 131.148 49.0676 131.002 48.3441 130.71C47.6207 130.419 47.0582 129.975 46.6566 129.381C46.2551 128.786 46.0487 128.034 46.0373 127.125H48.7305C48.7532 127.5 48.8536 127.812 49.0316 128.062C49.2097 128.312 49.454 128.502 49.7646 128.631C50.079 128.759 50.4426 128.824 50.8555 128.824C51.2343 128.824 51.5563 128.773 51.8214 128.67C52.0904 128.568 52.2968 128.426 52.4407 128.244C52.5847 128.062 52.6585 127.854 52.6623 127.619C52.6585 127.4 52.5904 127.212 52.4578 127.057C52.3252 126.898 52.1207 126.761 51.8441 126.648C51.5714 126.53 51.2229 126.422 50.7987 126.324L49.5828 126.04C48.5752 125.809 47.7816 125.436 47.2021 124.92C46.6226 124.402 46.3347 123.701 46.3385 122.818C46.3347 122.098 46.5279 121.468 46.918 120.926C47.3082 120.384 47.8479 119.962 48.5373 119.659C49.2267 119.356 50.0127 119.205 50.8953 119.205C51.7968 119.205 52.579 119.358 53.2419 119.665C53.9085 119.968 54.4256 120.394 54.793 120.943C55.1604 121.492 55.3479 122.129 55.3555 122.852H52.6623ZM63.5448 122.852C63.507 122.436 63.3384 122.112 63.0391 121.881C62.7437 121.646 62.3213 121.528 61.7721 121.528C61.4085 121.528 61.1054 121.576 60.863 121.67C60.6206 121.765 60.4388 121.896 60.3176 122.062C60.1963 122.225 60.1338 122.413 60.1301 122.625C60.1225 122.799 60.1566 122.953 60.2323 123.085C60.3119 123.218 60.4255 123.335 60.5732 123.438C60.7248 123.536 60.9066 123.623 61.1187 123.699C61.3308 123.775 61.5695 123.841 61.8346 123.898L62.8346 124.125C63.4104 124.25 63.9179 124.417 64.3573 124.625C64.8005 124.833 65.1717 125.081 65.471 125.369C65.774 125.657 66.0032 125.989 66.1585 126.364C66.3138 126.739 66.3933 127.159 66.3971 127.625C66.3933 128.36 66.2077 128.991 65.8403 129.517C65.4729 130.044 64.9445 130.447 64.2551 130.727C63.5695 131.008 62.7418 131.148 61.7721 131.148C60.7986 131.148 59.9501 131.002 59.2266 130.71C58.5032 130.419 57.9407 129.975 57.5391 129.381C57.1376 128.786 56.9312 128.034 56.9198 127.125H59.613C59.6357 127.5 59.7361 127.812 59.9141 128.062C60.0922 128.312 60.3365 128.502 60.6471 128.631C60.9615 128.759 61.3251 128.824 61.738 128.824C62.1168 128.824 62.4388 128.773 62.7039 128.67C62.9729 128.568 63.1793 128.426 63.3232 128.244C63.4672 128.062 63.541 127.854 63.5448 127.619C63.541 127.4 63.4729 127.212 63.3403 127.057C63.2077 126.898 63.0032 126.761 62.7266 126.648C62.4539 126.53 62.1054 126.422 61.6812 126.324L60.4653 126.04C59.4577 125.809 58.6641 125.436 58.0846 124.92C57.5051 124.402 57.2172 123.701 57.221 122.818C57.2172 122.098 57.4104 121.468 57.8005 120.926C58.1907 120.384 58.7304 119.962 59.4198 119.659C60.1092 119.356 60.8952 119.205 61.7778 119.205C62.6793 119.205 63.4615 119.358 64.1244 119.665C64.791 119.968 65.3081 120.394 65.6755 120.943C66.0429 121.492 66.2304 122.129 66.238 122.852H63.5448Z" fill="white"/>
<rect width="100" height="100" rx="8" fill="url(#paint0_linear_151_37)"/>
<path d="M23.584 20L28.392 73.983L49.9684 80L71.6041 73.9606L76.416 20H23.584ZM66.428 32.3682L64.8268 50.3523L64.8326 50.4493L64.825 50.6717V50.6697L63.6873 63.2437L63.562 64.3608L50 68.1115V68.1134L49.989 68.1229L36.451 64.3493L35.5338 53.9537H42.1728L42.6435 59.2405L50.0018 61.2337L50 61.2371L57.3842 59.2142L58.165 50.6062H42.7276L42.5952 49.151L42.2924 45.7418L42.1357 43.9111H58.752L59.3569 37.216H34.0469L33.914 35.7626L33.6132 32.3516L33.4544 30.521H66.5866L66.428 32.3682Z" fill="white"/>
<defs>
<linearGradient id="paint0_linear_151_37" x1="100" y1="50" x2="-8.43047e-07" y2="50" gradientUnits="userSpaceOnUse">
<stop stop-color="#4961DC"/>
<stop offset="1" stop-color="#6A98F0"/>
</linearGradient>
</defs>
</svg>
