<svg width="100" height="135" viewBox="0 0 100 135" fill="none" xmlns="http://www.w3.org/2000/svg">
<path d="M11.608 119.364H14.3807V127.409C14.3769 128.163 14.197 128.822 13.8409 129.386C13.4848 129.947 12.9924 130.383 12.3636 130.693C11.7386 131.004 11.0152 131.159 10.1932 131.159C9.46591 131.159 8.80492 131.032 8.21023 130.778C7.61932 130.525 7.14773 130.131 6.79545 129.597C6.44697 129.062 6.27462 128.379 6.27841 127.545H9.07955C9.09091 127.845 9.14773 128.1 9.25 128.312C9.35606 128.521 9.50189 128.678 9.6875 128.784C9.87311 128.89 10.0947 128.943 10.3523 128.943C10.6212 128.943 10.8485 128.886 11.0341 128.773C11.2197 128.655 11.3598 128.483 11.4545 128.256C11.553 128.028 11.6042 127.746 11.608 127.409V119.364ZM18.9265 131.148C18.3697 131.148 17.8754 131.055 17.4436 130.869C17.0155 130.68 16.6765 130.396 16.4265 130.017C16.1803 129.634 16.0572 129.155 16.0572 128.58C16.0572 128.095 16.1424 127.686 16.3129 127.352C16.4834 127.019 16.7182 126.748 17.0174 126.54C17.3167 126.331 17.6614 126.174 18.0515 126.068C18.4417 125.958 18.8584 125.884 19.3015 125.847C19.7977 125.801 20.1974 125.754 20.5004 125.705C20.8034 125.652 21.0231 125.578 21.1595 125.483C21.2996 125.384 21.3697 125.246 21.3697 125.068V125.04C21.3697 124.748 21.2693 124.523 21.0686 124.364C20.8678 124.205 20.597 124.125 20.2561 124.125C19.8887 124.125 19.5932 124.205 19.3697 124.364C19.1462 124.523 19.0042 124.742 18.9436 125.023L16.3811 124.932C16.4568 124.402 16.6519 123.928 16.9663 123.511C17.2845 123.091 17.7201 122.761 18.2731 122.523C18.8299 122.28 19.4985 122.159 20.2788 122.159C20.8356 122.159 21.3489 122.225 21.8186 122.358C22.2883 122.487 22.6974 122.676 23.0459 122.926C23.3943 123.172 23.6633 123.475 23.8527 123.835C24.0459 124.195 24.1424 124.606 24.1424 125.068V131H21.5288V129.784H21.4606C21.3053 130.08 21.1065 130.33 20.864 130.534C20.6254 130.739 20.3432 130.892 20.0174 130.994C19.6955 131.097 19.3318 131.148 18.9265 131.148ZM19.7845 129.33C20.0837 129.33 20.3527 129.269 20.5913 129.148C20.8337 129.027 21.0269 128.86 21.1709 128.648C21.3148 128.432 21.3868 128.182 21.3868 127.898V127.068C21.3072 127.11 21.2106 127.148 21.097 127.182C20.9871 127.216 20.8659 127.248 20.7334 127.278C20.6008 127.309 20.4644 127.335 20.3243 127.358C20.1841 127.381 20.0496 127.402 19.9209 127.42C19.6595 127.462 19.436 127.527 19.2504 127.614C19.0686 127.701 18.9284 127.814 18.8299 127.955C18.7352 128.091 18.6879 128.254 18.6879 128.443C18.6879 128.731 18.7902 128.951 18.9947 129.102C19.203 129.254 19.4663 129.33 19.7845 129.33ZM34.3147 122.273L31.3204 131H28.1386L25.1499 122.273H28.0761L29.684 128.284H29.7749L31.3886 122.273H34.3147ZM37.9259 131.148C37.3691 131.148 36.8748 131.055 36.443 130.869C36.0149 130.68 35.6759 130.396 35.4259 130.017C35.1797 129.634 35.0566 129.155 35.0566 128.58C35.0566 128.095 35.1418 127.686 35.3123 127.352C35.4827 127.019 35.7176 126.748 36.0168 126.54C36.3161 126.331 36.6608 126.174 37.0509 126.068C37.4411 125.958 37.8577 125.884 38.3009 125.847C38.7971 125.801 39.1967 125.754 39.4998 125.705C39.8028 125.652 40.0225 125.578 40.1589 125.483C40.299 125.384 40.3691 125.246 40.3691 125.068V125.04C40.3691 124.748 40.2687 124.523 40.068 124.364C39.8672 124.205 39.5964 124.125 39.2555 124.125C38.888 124.125 38.5926 124.205 38.3691 124.364C38.1456 124.523 38.0036 124.742 37.943 125.023L35.3805 124.932C35.4562 124.402 35.6513 123.928 35.9657 123.511C36.2839 123.091 36.7195 122.761 37.2725 122.523C37.8293 122.28 38.4979 122.159 39.2782 122.159C39.835 122.159 40.3483 122.225 40.818 122.358C41.2877 122.487 41.6967 122.676 42.0452 122.926C42.3937 123.172 42.6627 123.475 42.852 123.835C43.0452 124.195 43.1418 124.606 43.1418 125.068V131H40.5282V129.784H40.46C40.3047 130.08 40.1058 130.33 39.8634 130.534C39.6248 130.739 39.3426 130.892 39.0168 130.994C38.6948 131.097 38.3312 131.148 37.9259 131.148ZM38.7839 129.33C39.0831 129.33 39.352 129.269 39.5907 129.148C39.8331 129.027 40.0263 128.86 40.1702 128.648C40.3142 128.432 40.3861 128.182 40.3861 127.898V127.068C40.3066 127.11 40.21 127.148 40.0964 127.182C39.9865 127.216 39.8653 127.248 39.7327 127.278C39.6002 127.309 39.4638 127.335 39.3236 127.358C39.1835 127.381 39.049 127.402 38.9202 127.42C38.6589 127.462 38.4354 127.527 38.2498 127.614C38.068 127.701 37.9278 127.814 37.8293 127.955C37.7346 128.091 37.6873 128.254 37.6873 128.443C37.6873 128.731 37.7895 128.951 37.9941 129.102C38.2024 129.254 38.4657 129.33 38.7839 129.33ZM51.4505 122.852C51.4126 122.436 51.244 122.112 50.9448 121.881C50.6493 121.646 50.227 121.528 49.6777 121.528C49.3141 121.528 49.0111 121.576 48.7686 121.67C48.5262 121.765 48.3444 121.896 48.2232 122.062C48.102 122.225 48.0395 122.413 48.0357 122.625C48.0281 122.799 48.0622 122.953 48.138 123.085C48.2175 123.218 48.3311 123.335 48.4789 123.438C48.6304 123.536 48.8122 123.623 49.0243 123.699C49.2364 123.775 49.4751 123.841 49.7402 123.898L50.7402 124.125C51.316 124.25 51.8236 124.417 52.263 124.625C52.7061 124.833 53.0773 125.081 53.3766 125.369C53.6796 125.657 53.9088 125.989 54.0641 126.364C54.2194 126.739 54.2989 127.159 54.3027 127.625C54.2989 128.36 54.1133 128.991 53.7459 129.517C53.3785 130.044 52.8501 130.447 52.1607 130.727C51.4751 131.008 50.6474 131.148 49.6777 131.148C48.7042 131.148 47.8558 131.002 47.1323 130.71C46.4088 130.419 45.8463 129.975 45.4448 129.381C45.0433 128.786 44.8368 128.034 44.8255 127.125H47.5186C47.5414 127.5 47.6417 127.812 47.8198 128.062C47.9978 128.312 48.2421 128.502 48.5527 128.631C48.8671 128.759 49.2308 128.824 49.6436 128.824C50.0224 128.824 50.3444 128.773 50.6095 128.67C50.8785 128.568 51.0849 128.426 51.2289 128.244C51.3728 128.062 51.4467 127.854 51.4505 127.619C51.4467 127.4 51.3785 127.212 51.2459 127.057C51.1133 126.898 50.9088 126.761 50.6323 126.648C50.3595 126.53 50.0111 126.422 49.5868 126.324L48.3709 126.04C47.3633 125.809 46.5698 125.436 45.9902 124.92C45.4107 124.402 45.1228 123.701 45.1266 122.818C45.1228 122.098 45.316 121.468 45.7061 120.926C46.0963 120.384 46.6361 119.962 47.3255 119.659C48.0148 119.356 48.8008 119.205 49.6834 119.205C50.5849 119.205 51.3671 119.358 52.03 119.665C52.6967 119.968 53.2137 120.394 53.5811 120.943C53.9486 121.492 54.1361 122.129 54.1436 122.852H51.4505ZM60.117 131.165C59.1966 131.165 58.4068 130.975 57.7477 130.597C57.0924 130.218 56.5886 129.691 56.2364 129.017C55.8841 128.339 55.708 127.555 55.708 126.665C55.708 125.771 55.8841 124.987 56.2364 124.312C56.5924 123.634 57.0981 123.106 57.7534 122.727C58.4125 122.348 59.1985 122.159 60.1114 122.159C60.9182 122.159 61.6208 122.305 62.2193 122.597C62.8216 122.888 63.2913 123.301 63.6284 123.835C63.9693 124.366 64.1492 124.989 64.1682 125.705H61.5716C61.5186 125.258 61.367 124.907 61.117 124.653C60.8708 124.4 60.5489 124.273 60.1511 124.273C59.8292 124.273 59.547 124.364 59.3045 124.545C59.0621 124.723 58.8727 124.989 58.7364 125.341C58.6038 125.689 58.5375 126.121 58.5375 126.636C58.5375 127.152 58.6038 127.587 58.7364 127.943C58.8727 128.295 59.0621 128.562 59.3045 128.744C59.547 128.922 59.8292 129.011 60.1511 129.011C60.4087 129.011 60.636 128.956 60.833 128.847C61.0337 128.737 61.1985 128.576 61.3273 128.364C61.4561 128.148 61.5375 127.886 61.5716 127.58H64.1682C64.1417 128.299 63.9617 128.928 63.6284 129.466C63.2989 130.004 62.8348 130.422 62.2364 130.722C61.6417 131.017 60.9352 131.165 60.117 131.165ZM65.9101 131V122.273H68.6089V123.864H68.6998C68.8589 123.288 69.1184 122.86 69.4782 122.58C69.8381 122.295 70.2566 122.153 70.7339 122.153C70.8627 122.153 70.9953 122.163 71.1316 122.182C71.268 122.197 71.3949 122.222 71.5123 122.256V124.67C71.3798 124.625 71.2055 124.589 70.9896 124.562C70.7775 124.536 70.5881 124.523 70.4214 124.523C70.0919 124.523 69.7945 124.597 69.5294 124.744C69.268 124.888 69.0616 125.091 68.9101 125.352C68.7623 125.61 68.6885 125.913 68.6885 126.261V131H65.9101ZM72.9644 131V122.273H75.7428V131H72.9644ZM74.3565 121.256C73.9663 121.256 73.6311 121.127 73.3508 120.869C73.0705 120.608 72.9303 120.294 72.9303 119.926C72.9303 119.562 73.0705 119.252 73.3508 118.994C73.6311 118.733 73.9663 118.602 74.3565 118.602C74.7504 118.602 75.0856 118.733 75.3622 118.994C75.6425 119.252 75.7826 119.562 75.7826 119.926C75.7826 120.294 75.6425 120.608 75.3622 120.869C75.0856 121.127 74.7504 121.256 74.3565 121.256ZM77.8313 134.273V122.273H80.5813V123.767H80.6665C80.7802 123.502 80.9412 123.246 81.1495 123C81.3616 122.754 81.6305 122.553 81.9563 122.398C82.2858 122.239 82.6798 122.159 83.1381 122.159C83.7442 122.159 84.3105 122.318 84.837 122.636C85.3673 122.955 85.7953 123.445 86.1211 124.108C86.4468 124.771 86.6097 125.616 86.6097 126.642C86.6097 127.631 86.4525 128.458 86.1381 129.125C85.8275 129.792 85.4071 130.292 84.8768 130.625C84.3502 130.958 83.765 131.125 83.1211 131.125C82.6817 131.125 82.301 131.053 81.979 130.909C81.6571 130.765 81.3862 130.576 81.1665 130.341C80.9506 130.106 80.784 129.854 80.6665 129.585H80.6097V134.273H77.8313ZM80.5529 126.636C80.5529 127.106 80.6154 127.515 80.7404 127.864C80.8692 128.212 81.0529 128.483 81.2915 128.676C81.534 128.866 81.8237 128.96 82.1609 128.96C82.5018 128.96 82.7915 128.866 83.0302 128.676C83.2688 128.483 83.4487 128.212 83.5699 127.864C83.6949 127.515 83.7574 127.106 83.7574 126.636C83.7574 126.167 83.6949 125.759 83.5699 125.415C83.4487 125.07 83.2688 124.803 83.0302 124.614C82.7953 124.424 82.5055 124.33 82.1609 124.33C81.8199 124.33 81.5302 124.422 81.2915 124.608C81.0529 124.794 80.8692 125.059 80.7404 125.403C80.6154 125.748 80.5529 126.159 80.5529 126.636ZM93.3118 122.273V124.318H87.8061V122.273H93.3118ZM88.9595 120.182H91.738V128.256C91.738 128.426 91.7645 128.564 91.8175 128.67C91.8743 128.773 91.9558 128.847 92.0618 128.892C92.1679 128.934 92.2948 128.955 92.4425 128.955C92.5486 128.955 92.6603 128.945 92.7777 128.926C92.8989 128.903 92.9898 128.884 93.0505 128.869L93.4709 130.875C93.3383 130.913 93.1508 130.96 92.9084 131.017C92.6698 131.074 92.3838 131.11 92.0505 131.125C91.3989 131.155 90.8402 131.08 90.3743 130.898C89.9122 130.712 89.558 130.424 89.3118 130.034C89.0694 129.644 88.952 129.153 88.9595 128.562V120.182Z" fill="white"/>
<rect width="100" height="100" rx="8" fill="url(#paint0_linear_151_57)"/>
<g clip-path="url(#clip0_151_57)">
<path fill-rule="evenodd" clip-rule="evenodd" d="M14 14H86V86H14V14ZM69.041 74.36C65.702 74.36 63.815 72.62 62.366 70.25L56.867 73.445C58.853 77.369 62.912 80.363 69.197 80.363C75.623 80.363 80.408 77.027 80.408 70.934C80.408 65.285 77.162 62.774 71.414 60.305L69.722 59.582C66.818 58.322 65.561 57.503 65.561 55.472C65.561 53.831 66.821 52.574 68.801 52.574C70.742 52.574 71.993 53.393 73.154 55.472L78.422 52.091C76.193 48.17 73.103 46.673 68.801 46.673C62.759 46.673 58.892 50.537 58.892 55.613C58.892 61.118 62.132 63.725 67.016 65.804L68.708 66.53C71.795 67.88 73.634 68.702 73.634 71.021C73.634 72.959 71.843 74.36 69.041 74.36ZM42.821 74.315C40.496 74.315 39.527 72.725 38.465 70.835L32.957 74.171C34.553 77.549 37.691 80.351 43.106 80.351C49.103 80.351 53.21 77.162 53.21 70.157V47.057H46.445V70.067C46.445 73.448 45.041 74.315 42.818 74.315H42.821Z" fill="white"/>
</g>
<defs>
<linearGradient id="paint0_linear_151_57" x1="100" y1="50" x2="-8.43047e-07" y2="50" gradientUnits="userSpaceOnUse">
<stop stop-color="#4961DC"/>
<stop offset="1" stop-color="#6A98F0"/>
</linearGradient>
<clipPath id="clip0_151_57">
<rect width="72" height="72" fill="white" transform="translate(14 14)"/>
</clipPath>
</defs>
</svg>
