<svg width="100" height="135" viewBox="0 0 100 135" fill="none" xmlns="http://www.w3.org/2000/svg">
<path d="M21.8807 119.364H25.3636L28.3182 126.568H28.4545L31.4091 119.364H34.892V131H32.1534V123.852H32.0568L29.2614 130.926H27.5114L24.7159 123.812H24.6193V131H21.8807V119.364ZM38.6652 134.273C38.3318 134.273 38.0174 134.246 37.722 134.193C37.4265 134.144 37.1727 134.078 36.9606 133.994L37.5743 131.977C37.847 132.068 38.0932 132.121 38.3129 132.136C38.5364 132.152 38.7277 132.116 38.8868 132.028C39.0496 131.945 39.1746 131.795 39.2618 131.58L39.3697 131.318L36.2674 122.273H39.1765L40.7845 128.5H40.8754L42.5061 122.273H45.4322L42.1424 131.835C41.9834 132.313 41.758 132.733 41.4663 133.097C41.1784 133.464 40.8053 133.752 40.347 133.96C39.8924 134.169 39.3318 134.273 38.6652 134.273ZM53.1073 122.852C53.0695 122.436 52.9009 122.112 52.6016 121.881C52.3062 121.646 51.8838 121.528 51.3346 121.528C50.971 121.528 50.6679 121.576 50.4255 121.67C50.1831 121.765 50.0013 121.896 49.8801 122.062C49.7588 122.225 49.6963 122.413 49.6926 122.625C49.685 122.799 49.7191 122.953 49.7948 123.085C49.8744 123.218 49.988 123.335 50.1357 123.438C50.2873 123.536 50.4691 123.623 50.6812 123.699C50.8933 123.775 51.132 123.841 51.3971 123.898L52.3971 124.125C52.9729 124.25 53.4804 124.417 53.9198 124.625C54.363 124.833 54.7342 125.081 55.0335 125.369C55.3365 125.657 55.5657 125.989 55.721 126.364C55.8763 126.739 55.9558 127.159 55.9596 127.625C55.9558 128.36 55.7702 128.991 55.4028 129.517C55.0354 130.044 54.507 130.447 53.8176 130.727C53.132 131.008 52.3043 131.148 51.3346 131.148C50.3611 131.148 49.5126 131.002 48.7891 130.71C48.0657 130.419 47.5032 129.975 47.1016 129.381C46.7001 128.786 46.4937 128.034 46.4823 127.125H49.1755C49.1982 127.5 49.2986 127.812 49.4766 128.062C49.6547 128.312 49.899 128.502 50.2096 128.631C50.524 128.759 50.8876 128.824 51.3005 128.824C51.6793 128.824 52.0013 128.773 52.2664 128.67C52.5354 128.568 52.7418 128.426 52.8857 128.244C53.0297 128.062 53.1035 127.854 53.1073 127.619C53.1035 127.4 53.0354 127.212 52.9028 127.057C52.7702 126.898 52.5657 126.761 52.2891 126.648C52.0164 126.53 51.6679 126.422 51.2437 126.324L50.0278 126.04C49.0202 125.809 48.2266 125.436 47.6471 124.92C47.0676 124.402 46.7797 123.701 46.7835 122.818C46.7797 122.098 46.9729 121.468 47.363 120.926C47.7532 120.384 48.2929 119.962 48.9823 119.659C49.6717 119.356 50.4577 119.205 51.3403 119.205C52.2418 119.205 53.024 119.358 53.6869 119.665C54.3535 119.968 54.8706 120.394 55.238 120.943C55.6054 121.492 55.7929 122.129 55.8005 122.852H53.1073ZM62.1489 126.818H64.4216L65.3876 128.051L66.6546 129.506L68.6035 131.909H66.058L64.6944 130.278L63.8876 129.119L62.1489 126.818ZM68.683 125.182C68.683 126.462 68.4368 127.547 67.9444 128.438C67.452 129.328 66.7853 130.004 65.9444 130.466C65.1073 130.928 64.1679 131.159 63.1262 131.159C62.0807 131.159 61.1394 130.926 60.3023 130.46C59.4652 129.994 58.8004 129.318 58.308 128.432C57.8194 127.542 57.5751 126.458 57.5751 125.182C57.5751 123.902 57.8194 122.816 58.308 121.926C58.8004 121.036 59.4652 120.36 60.3023 119.898C61.1394 119.436 62.0807 119.205 63.1262 119.205C64.1679 119.205 65.1073 119.436 65.9444 119.898C66.7853 120.36 67.452 121.036 67.9444 121.926C68.4368 122.816 68.683 123.902 68.683 125.182ZM65.808 125.182C65.808 124.424 65.7001 123.784 65.4841 123.261C65.272 122.739 64.9652 122.343 64.5637 122.074C64.166 121.805 63.6868 121.67 63.1262 121.67C62.5694 121.67 62.0902 121.805 61.6887 122.074C61.2872 122.343 60.9785 122.739 60.7626 123.261C60.5504 123.784 60.4444 124.424 60.4444 125.182C60.4444 125.939 60.5504 126.58 60.7626 127.102C60.9785 127.625 61.2872 128.021 61.6887 128.29C62.0902 128.559 62.5694 128.693 63.1262 128.693C63.6868 128.693 64.166 128.559 64.5637 128.29C64.9652 128.021 65.272 127.625 65.4841 127.102C65.7001 126.58 65.808 125.939 65.808 125.182ZM70.6607 131V119.364H73.4732V128.716H78.3141V131H70.6607Z" fill="white"/>
<rect width="100" height="100" rx="8" fill="url(#paint0_linear_151_67)"/>
<g clip-path="url(#clip0_151_67)">
<path d="M33.3934 58.9533L35.8854 67.0544C36.4453 68.8937 36.6788 70.1777 36.5853 70.9095C37.9482 67.2524 38.9005 63.2669 39.4423 58.9533H42.4389C41.1504 65.9759 39.451 71.0792 37.3416 74.2626C35.698 76.7159 33.8976 77.9424 31.9369 77.9424C31.4142 77.9424 30.7697 77.7842 30.005 77.4701V75.7772C30.3786 75.8321 30.817 75.8615 31.3211 75.8615C32.2358 75.8615 32.973 75.6074 33.5339 75.1006C34.2054 74.483 34.5416 73.7888 34.5416 73.0194C34.5416 72.4941 34.2794 71.416 33.7574 69.7851L30.2852 58.9533H33.3932H33.3934ZM14.3209 53.9741L18.8853 67.9269H18.9135L23.506 53.9741H27.2581C28.0797 60.8937 28.565 67.2249 28.714 72.9637H25.5505C25.4392 67.5991 25.1309 62.5546 24.6268 57.8293H24.5992L19.782 72.9637H17.373L12.5849 57.8293H12.5567C12.2015 62.3674 11.9779 67.4119 11.8847 72.9637H9C9.18642 66.2116 9.65296 59.8824 10.3996 53.9741H14.321H14.3209Z" fill="white"/>
<path d="M65.4547 53.6921C70.3646 53.6921 72.8197 56.8348 72.8197 63.1172C72.8197 66.5311 72.0813 69.1099 70.6061 70.852C70.3403 71.1703 70.0464 71.4453 69.737 71.7001L73.2116 73.4214L73.2082 73.4212L71.9745 75.5556L67.4496 72.9105C66.6996 73.133 65.8743 73.2442 64.9751 73.2442C62.5642 73.2442 60.7634 72.5403 59.5728 71.1342C58.266 69.5787 57.6128 67.13 57.6128 63.7921C57.6128 60.3975 58.3499 57.8285 59.8256 56.0842C61.1696 54.4886 63.0463 53.6919 65.4547 53.6919V53.6921ZM50.4193 53.7197C52.1741 53.7197 53.7697 54.1901 55.207 55.1277L54.477 56.7575C53.2471 56.2337 52.0346 55.9707 50.8389 55.9707C49.8686 55.9707 49.121 56.2047 48.5999 56.6755C48.0758 57.1421 47.7517 57.7425 47.7517 58.4745C47.7517 59.5993 48.5515 60.5748 50.0283 61.3989C50.5121 61.6638 50.9943 61.9319 51.4747 62.2029L51.5849 62.265L51.6401 62.2962L51.7505 62.3583L51.8056 62.3894L51.9158 62.4516C53.0336 63.083 54.0856 63.6857 54.0856 63.6857C55.5622 64.7359 56.2983 65.8556 56.2983 67.6998C56.2983 69.3103 55.7092 70.6323 54.535 71.6668C53.3599 72.6966 51.7812 73.2129 49.8043 73.2129C47.9553 73.2129 46.1633 72.6186 44.4275 71.4399L45.2395 69.8087C46.7333 70.5588 48.085 70.9335 49.2988 70.9335C50.4372 70.9335 51.3283 70.6788 51.9729 70.1759C52.6163 69.6694 53.0018 68.9629 53.0018 68.067C53.0018 66.9395 52.2189 65.9756 50.7828 65.1671C50.3333 64.9183 49.8851 64.667 49.4383 64.4134L49.3283 64.351C49.1262 64.2366 48.9226 64.1207 48.7232 64.0073L48.6151 63.9457C47.6453 63.393 46.8069 62.9102 46.8069 62.9102C45.3713 61.8581 44.6514 60.7293 44.6514 58.8692C44.6514 57.3309 45.1882 56.0875 46.2603 55.1416C47.335 54.1936 48.7214 53.7197 50.4193 53.7197ZM78.5899 53.9738V70.6275H84.5538V72.9634H75.5652V53.9738H78.5899ZM87.8678 70.6347V71.0294H87.2121V72.9613H86.7108V71.0294H86.0297V70.6347H87.8679H87.8678ZM89.0786 70.6347L89.7081 72.2207L90.2865 70.6347H90.9971V72.9613H90.5246V71.1907L89.8664 72.9613H89.5257L88.8664 71.1907H88.8411V72.9613H88.3941V70.6347H89.0787H89.0786ZM65.1459 56.0274C62.2526 56.0274 60.8051 58.4198 60.8051 63.2015C60.8051 65.9405 61.1886 67.9266 61.9543 69.1646C62.6635 70.3103 63.7742 70.882 65.2866 70.882C68.1799 70.882 69.6273 68.4709 69.6273 63.6511C69.6273 60.9504 69.2437 58.9812 68.479 57.7427C67.769 56.5996 66.6588 56.0274 65.1461 56.0274H65.1459Z" fill="white"/>
<path d="M57.5623 23.1767C58.5221 20.8137 61.8781 22.6032 63.1805 23.4286C63.4997 23.6351 63.8658 24.0714 64.2318 24.2326C64.8028 24.2551 65.3732 24.2999 65.9452 24.3238C67.0179 24.5763 68.0227 24.7827 68.868 25.265C72.7963 27.5828 75.3535 29.9448 77.707 33.8462C78.2099 34.6725 78.4612 35.5668 78.872 36.461C79.4422 37.7939 80.0828 39.1931 80.7446 40.4535C81.0408 41.0511 81.27 41.7155 81.6815 42.2202C81.8421 42.4509 82.2984 42.519 82.5711 42.6568C83.3252 43.0478 84.2387 43.3447 84.9479 43.8036C86.2722 44.6309 87.5526 45.6168 88.7167 46.6261C89.1505 47.0156 89.4462 47.5671 89.8595 47.9792V48.1872C89.4926 48.3 89.127 48.4155 88.761 48.5081C87.9617 48.7138 87.2536 48.6672 86.4781 48.8731C85.999 49.0124 85.404 49.1961 84.9014 49.2428L84.9479 49.2897C85.2435 50.1361 86.8431 50.8244 87.5747 51.3307C88.4633 51.9732 89.2866 52.7524 89.9494 53.6472C90.1782 53.8756 90.4071 54.0834 90.6348 54.3111C90.794 54.5418 90.8389 54.8402 91 55.0459V55.1156C90.8216 55.0525 90.6933 54.9322 90.5717 54.8064L90.4992 54.7305C90.4266 54.6551 90.3534 54.5809 90.27 54.5198C89.7658 54.1748 89.2652 53.7621 88.761 53.4414C87.8942 52.8904 86.8889 52.5706 85.999 52.0175C85.4957 51.6964 85.0161 51.3307 84.5364 50.9632C84.1016 50.6412 83.6227 50.0228 83.3495 49.5639C83.1885 49.3104 83.1664 49.0124 82.9826 48.829C83.0154 48.5227 83.2955 48.4317 83.5782 48.3569L83.6432 48.3397C83.7408 48.3144 83.8362 48.289 83.9195 48.2555C85.1069 47.7504 86.5225 47.5671 88.3505 47.613C88.2817 47.1532 87.1394 46.5802 86.7748 46.3048C86.0428 45.7763 85.2678 45.2248 84.4914 44.7437C84.08 44.4918 83.371 44.3079 82.9152 44.102C82.2984 43.8495 80.9276 43.5971 80.5858 43.116C80.0053 42.3577 79.5882 41.4532 79.1833 40.5395L79.0732 40.2902C79.0364 40.2071 78.9996 40.124 78.9627 40.041C78.4841 38.9407 77.8896 37.7936 77.4099 36.667C77.1591 36.1175 77.044 35.6351 76.7693 35.108C75.1026 31.8735 72.6357 29.1654 69.6448 27.261C68.6619 26.6413 67.5659 26.0678 66.3561 25.678C65.6705 25.4706 64.8476 25.5853 64.1171 25.4261H63.6363C63.226 25.3103 62.8834 24.8745 62.5633 24.6447C61.8562 24.1636 61.148 23.8406 60.3024 23.4974C60.0061 23.3597 59.16 23.0391 58.8647 23.2915C58.6818 23.3376 58.589 23.4068 58.544 23.5906C58.3621 23.865 58.5221 24.2784 58.6353 24.5314C58.9784 25.2647 59.4575 25.7005 59.8925 26.3202C60.2795 26.8698 60.7601 27.4895 61.0344 28.087C61.6264 29.3715 61.902 30.7946 62.4505 32.0789C62.6539 32.5619 62.9757 33.1114 63.2718 33.5471C63.5228 33.8929 63.9791 34.1429 64.1171 34.5806C64.3923 35.0395 63.7052 36.5538 63.5462 37.0346C62.9512 38.9163 63.0665 41.532 63.7517 43.163L63.7882 43.249L63.8247 43.3362C64.0749 43.9336 64.3426 44.5768 65.0078 44.7439C65.0536 44.6983 65.0078 44.7222 65.0986 44.6983C65.2595 43.4358 65.3048 42.22 65.7392 41.2322C65.9902 40.6146 66.4913 40.178 66.8348 39.6739C67.0638 39.8112 67.0638 40.2254 67.2003 40.4994C67.4976 41.2103 67.8167 41.9896 68.1832 42.7025C68.9353 44.1707 69.7815 45.5941 70.7404 46.8785C71.0615 47.3372 71.5172 47.8422 71.9281 48.2553C72.1112 48.4153 72.3162 48.5077 72.4537 48.7136H72.4986V48.7829C71.8134 48.5299 71.3791 47.8197 70.8326 47.4051C69.8038 46.6257 68.5717 45.4553 67.8625 44.3323C67.5659 43.6876 67.2453 43.0696 66.9256 42.4281V42.3818C66.789 42.565 66.8348 42.747 66.7664 43.0242C66.4698 44.1707 66.6982 45.4786 65.6705 45.891C64.5055 46.374 63.6365 45.1116 63.2718 44.538C62.1065 42.634 61.7873 39.4219 62.6091 36.8291C62.7917 36.2551 62.8165 35.5668 63.1352 35.1085C63.0664 34.6942 62.7476 34.5809 62.5633 34.3271C62.2436 33.8932 61.9699 33.3877 61.7196 32.9059C61.2388 31.9646 60.8967 30.84 60.5317 29.8305C60.3712 29.4183 60.3253 29.0045 60.1653 28.6143C59.8924 28.0186 59.3893 27.4211 59.0013 26.8942C58.4758 26.1368 56.9453 24.6689 57.5623 23.1767ZM65.0531 27.6719C65.1141 27.7332 65.1878 27.7868 65.264 27.8396L65.3559 27.9028C65.4785 27.9878 65.5971 28.0774 65.6698 28.1993C65.7852 28.3607 65.8066 28.5201 65.9447 28.6818C65.9447 29.2333 65.7852 29.6 65.4631 29.8285C65.4631 29.8285 65.4411 29.8525 65.4186 29.875C65.236 29.5074 65.076 29.1417 64.8921 28.7744C64.6657 28.4538 64.3455 28.1995 64.161 27.8332H64.1167V27.7871C64.3923 27.7189 64.6657 27.6719 65.0531 27.6719Z" fill="white"/>
</g>
<defs>
<linearGradient id="paint0_linear_151_67" x1="100" y1="50" x2="-8.43047e-07" y2="50" gradientUnits="userSpaceOnUse">
<stop stop-color="#4961DC"/>
<stop offset="1" stop-color="#6A98F0"/>
</linearGradient>
<clipPath id="clip0_151_67">
<rect width="82" height="56" fill="white" transform="translate(9 22)"/>
</clipPath>
</defs>
</svg>
