<svg width="100" height="132" viewBox="0 0 100 132" fill="none" xmlns="http://www.w3.org/2000/svg">
<path d="M14.8807 131V119.364H19.6875C20.5587 119.364 21.3106 119.521 21.9432 119.835C22.5795 120.146 23.0701 120.593 23.4148 121.176C23.7595 121.756 23.9318 122.443 23.9318 123.239C23.9318 124.045 23.7557 124.731 23.4034 125.295C23.0511 125.856 22.5511 126.284 21.9034 126.58C21.2557 126.871 20.4886 127.017 19.6023 127.017H16.5625V124.801H19.0795C19.5038 124.801 19.858 124.746 20.142 124.636C20.4299 124.523 20.6477 124.352 20.7955 124.125C20.9432 123.894 21.017 123.598 21.017 123.239C21.017 122.879 20.9432 122.581 20.7955 122.347C20.6477 122.108 20.4299 121.93 20.142 121.812C19.8542 121.691 19.5 121.631 19.0795 121.631H17.6932V131H14.8807ZM21.4318 125.682L24.3295 131H21.2614L18.4205 125.682H21.4318Z" fill="white"/>
<path d="M29.7021 131.165C28.7892 131.165 28.0013 130.985 27.3385 130.625C26.6794 130.261 26.1718 129.744 25.8157 129.074C25.4635 128.4 25.2873 127.598 25.2873 126.67C25.2873 125.769 25.4654 124.981 25.8214 124.307C26.1775 123.629 26.6794 123.102 27.3271 122.727C27.9748 122.348 28.7381 122.159 29.6169 122.159C30.2381 122.159 30.8063 122.256 31.3214 122.449C31.8366 122.642 32.2816 122.928 32.6566 123.307C33.0316 123.686 33.3233 124.153 33.5316 124.71C33.74 125.263 33.8441 125.898 33.8441 126.614V127.307H26.2589V125.693H31.2589C31.2551 125.398 31.1851 125.134 31.0487 124.903C30.9123 124.672 30.7248 124.492 30.4862 124.364C30.2513 124.231 29.9805 124.165 29.6737 124.165C29.3631 124.165 29.0847 124.235 28.8385 124.375C28.5923 124.511 28.3972 124.699 28.2532 124.938C28.1093 125.172 28.0335 125.439 28.026 125.739V127.381C28.026 127.737 28.096 128.049 28.2362 128.318C28.3763 128.583 28.5752 128.79 28.8328 128.938C29.0904 129.085 29.3972 129.159 29.7532 129.159C29.9995 129.159 30.2229 129.125 30.4237 129.057C30.6245 128.989 30.7968 128.888 30.9407 128.756C31.0847 128.623 31.1926 128.46 31.2646 128.267L33.8157 128.341C33.7097 128.913 33.4767 129.411 33.1169 129.835C32.7608 130.256 32.293 130.583 31.7135 130.818C31.1339 131.049 30.4635 131.165 29.7021 131.165Z" fill="white"/>
<path d="M38.0434 131.148C37.4866 131.148 36.9923 131.055 36.5605 130.869C36.1324 130.68 35.7934 130.396 35.5434 130.017C35.2972 129.634 35.1741 129.155 35.1741 128.58C35.1741 128.095 35.2593 127.686 35.4298 127.352C35.6002 127.019 35.8351 126.748 36.1343 126.54C36.4336 126.331 36.7783 126.174 37.1684 126.068C37.5586 125.958 37.9752 125.884 38.4184 125.847C38.9146 125.801 39.3142 125.754 39.6173 125.705C39.9203 125.652 40.14 125.578 40.2764 125.483C40.4165 125.384 40.4866 125.246 40.4866 125.068V125.04C40.4866 124.748 40.3862 124.523 40.1855 124.364C39.9847 124.205 39.7139 124.125 39.373 124.125C39.0055 124.125 38.7101 124.205 38.4866 124.364C38.2631 124.523 38.1211 124.742 38.0605 125.023L35.498 124.932C35.5737 124.402 35.7688 123.928 36.0832 123.511C36.4014 123.091 36.837 122.761 37.39 122.523C37.9468 122.28 38.6154 122.159 39.3957 122.159C39.9525 122.159 40.4658 122.225 40.9355 122.358C41.4052 122.487 41.8142 122.676 42.1627 122.926C42.5112 123.172 42.7802 123.475 42.9695 123.835C43.1627 124.195 43.2593 124.606 43.2593 125.068V131H40.6457V129.784H40.5775C40.4222 130.08 40.2233 130.33 39.9809 130.534C39.7423 130.739 39.4601 130.892 39.1343 130.994C38.8124 131.097 38.4487 131.148 38.0434 131.148ZM38.9014 129.33C39.2006 129.33 39.4695 129.269 39.7082 129.148C39.9506 129.027 40.1438 128.86 40.2877 128.648C40.4317 128.432 40.5036 128.182 40.5036 127.898V127.068C40.4241 127.11 40.3275 127.148 40.2139 127.182C40.104 127.216 39.9828 127.248 39.8502 127.278C39.7177 127.309 39.5813 127.335 39.4411 127.358C39.301 127.381 39.1665 127.402 39.0377 127.42C38.7764 127.462 38.5529 127.527 38.3673 127.614C38.1855 127.701 38.0453 127.814 37.9468 127.955C37.8521 128.091 37.8048 128.254 37.8048 128.443C37.8048 128.731 37.907 128.951 38.1116 129.102C38.3199 129.254 38.5832 129.33 38.9014 129.33Z" fill="white"/>
<path d="M49.352 131.165C48.4316 131.165 47.6418 130.975 46.9827 130.597C46.3274 130.218 45.8236 129.691 45.4714 129.017C45.1191 128.339 44.943 127.555 44.943 126.665C44.943 125.771 45.1191 124.987 45.4714 124.312C45.8274 123.634 46.3331 123.106 46.9884 122.727C47.6475 122.348 48.4335 122.159 49.3464 122.159C50.1532 122.159 50.8558 122.305 51.4543 122.597C52.0566 122.888 52.5263 123.301 52.8634 123.835C53.2043 124.366 53.3842 124.989 53.4032 125.705H50.8066C50.7536 125.258 50.602 124.907 50.352 124.653C50.1058 124.4 49.7839 124.273 49.3861 124.273C49.0642 124.273 48.782 124.364 48.5395 124.545C48.2971 124.723 48.1077 124.989 47.9714 125.341C47.8388 125.689 47.7725 126.121 47.7725 126.636C47.7725 127.152 47.8388 127.587 47.9714 127.943C48.1077 128.295 48.2971 128.562 48.5395 128.744C48.782 128.922 49.0642 129.011 49.3861 129.011C49.6437 129.011 49.871 128.956 50.068 128.847C50.2687 128.737 50.4335 128.576 50.5623 128.364C50.6911 128.148 50.7725 127.886 50.8066 127.58H53.4032C53.3767 128.299 53.1967 128.928 52.8634 129.466C52.5339 130.004 52.0698 130.422 51.4714 130.722C50.8767 131.017 50.1702 131.165 49.352 131.165Z" fill="white"/>
<path d="M60.0712 122.273V124.318H54.5655V122.273H60.0712ZM55.7189 120.182H58.4973V128.256C58.4973 128.426 58.5238 128.564 58.5769 128.67C58.6337 128.773 58.7151 128.847 58.8212 128.892C58.9273 128.934 59.0541 128.955 59.2019 128.955C59.3079 128.955 59.4197 128.945 59.5371 128.926C59.6583 128.903 59.7492 128.884 59.8098 128.869L60.2303 130.875C60.0977 130.913 59.9102 130.96 59.6678 131.017C59.4291 131.074 59.1432 131.11 58.8098 131.125C58.1583 131.155 57.5996 131.08 57.1337 130.898C56.6716 130.712 56.3174 130.424 56.0712 130.034C55.8288 129.644 55.7113 129.153 55.7189 128.562V120.182Z" fill="white"/>
<path d="M63.3713 131.165C62.9622 131.165 62.6118 131.021 62.3202 130.733C62.0323 130.445 61.8902 130.097 61.894 129.688C61.8902 129.286 62.0323 128.943 62.3202 128.659C62.6118 128.371 62.9622 128.227 63.3713 128.227C63.7577 128.227 64.0986 128.371 64.394 128.659C64.6933 128.943 64.8448 129.286 64.8486 129.688C64.8448 129.96 64.7728 130.208 64.6327 130.432C64.4963 130.655 64.3164 130.833 64.0929 130.966C63.8732 131.098 63.6327 131.165 63.3713 131.165Z" fill="white"/>
<path d="M71.7311 119.364H74.5038V127.409C74.5 128.163 74.3201 128.822 73.964 129.386C73.608 129.947 73.1156 130.383 72.4868 130.693C71.8618 131.004 71.1383 131.159 70.3163 131.159C69.589 131.159 68.928 131.032 68.3334 130.778C67.7424 130.525 67.2709 130.131 66.9186 129.597C66.5701 129.062 66.3978 128.379 66.4015 127.545H69.2027C69.214 127.845 69.2709 128.1 69.3731 128.312C69.4792 128.521 69.625 128.678 69.8106 128.784C69.9962 128.89 70.2178 128.943 70.4754 128.943C70.7443 128.943 70.9716 128.886 71.1572 128.773C71.3428 128.655 71.483 128.483 71.5777 128.256C71.6762 128.028 71.7273 127.746 71.7311 127.409V119.364Z" fill="white"/>
<path d="M82.8792 122.852C82.8413 122.436 82.6728 122.112 82.3735 121.881C82.0781 121.646 81.6557 121.528 81.1065 121.528C80.7428 121.528 80.4398 121.576 80.1974 121.67C79.955 121.765 79.7731 121.896 79.6519 122.062C79.5307 122.225 79.4682 122.413 79.4644 122.625C79.4569 122.799 79.4909 122.953 79.5667 123.085C79.6462 123.218 79.7599 123.335 79.9076 123.438C80.0591 123.536 80.241 123.623 80.4531 123.699C80.6652 123.775 80.9038 123.841 81.169 123.898L82.169 124.125C82.7447 124.25 83.2523 124.417 83.6917 124.625C84.1349 124.833 84.5061 125.081 84.8053 125.369C85.1084 125.657 85.3375 125.989 85.4928 126.364C85.6481 126.739 85.7277 127.159 85.7315 127.625C85.7277 128.36 85.5421 128.991 85.1747 129.517C84.8072 130.044 84.2788 130.447 83.5894 130.727C82.9038 131.008 82.0762 131.148 81.1065 131.148C80.133 131.148 79.2845 131.002 78.561 130.71C77.8375 130.419 77.275 129.975 76.8735 129.381C76.472 128.786 76.2656 128.034 76.2542 127.125H78.9474C78.9701 127.5 79.0705 127.812 79.2485 128.062C79.4266 128.312 79.6709 128.502 79.9815 128.631C80.2959 128.759 80.6595 128.824 81.0724 128.824C81.4512 128.824 81.7731 128.773 82.0383 128.67C82.3072 128.568 82.5137 128.426 82.6576 128.244C82.8016 128.062 82.8754 127.854 82.8792 127.619C82.8754 127.4 82.8072 127.212 82.6747 127.057C82.5421 126.898 82.3375 126.761 82.061 126.648C81.7883 126.53 81.4398 126.422 81.0156 126.324L79.7997 126.04C78.7921 125.809 77.9985 125.436 77.419 124.92C76.8394 124.402 76.5516 123.701 76.5553 122.818C76.5516 122.098 76.7447 121.468 77.1349 120.926C77.525 120.384 78.0648 119.962 78.7542 119.659C79.4436 119.356 80.2296 119.205 81.1122 119.205C82.0137 119.205 82.7959 119.358 83.4588 119.665C84.1254 119.968 84.6425 120.394 85.0099 120.943C85.3773 121.492 85.5648 122.129 85.5724 122.852H82.8792Z" fill="white"/>
<path d="M0 16C0 8.45753 0 4.68629 2.34315 2.34315C4.68629 0 8.45753 0 16 0H84C91.5425 0 95.3137 0 97.6569 2.34315C100 4.68629 100 8.45753 100 16V84C100 91.5425 100 95.3137 97.6569 97.6569C95.3137 100 91.5425 100 84 100H16C8.45753 100 4.68629 100 2.34315 97.6569C0 95.3137 0 91.5425 0 84V16Z" fill="url(#paint0_linear_402_9)"/>
<path d="M47.309 45.3138C46.3913 45.8436 45.6513 46.6337 45.1826 47.5841C44.7139 48.5345 44.5376 49.6025 44.6759 50.6532C44.8142 51.7038 45.261 52.6898 45.9597 53.4865C46.6584 54.2832 47.5777 54.8548 48.6013 55.129C49.6249 55.4033 50.7068 55.3678 51.7102 55.0272C52.7137 54.6865 53.5935 54.056 54.2386 53.2152C54.8837 52.3745 55.2649 51.3614 55.3342 50.304C55.4035 49.2465 55.1576 48.1923 54.6277 47.2747C53.9171 46.0442 52.7469 45.1463 51.3744 44.7786C50.0019 44.4109 48.5396 44.6034 47.309 45.3138ZM71.3231 51.1268C70.9714 50.7248 70.6002 50.3218 70.2096 49.9176C70.4824 49.6309 70.7464 49.3444 71.0016 49.0581C75.8191 43.6453 77.8523 38.217 75.9684 34.9535C74.1618 31.8245 68.7881 30.892 62.0606 32.2001C61.3979 32.3298 60.7389 32.476 60.0836 32.6389C59.9581 32.2064 59.8247 31.7764 59.6833 31.3489C57.401 24.4713 53.7143 19.9976 49.9462 20C46.333 20.0016 42.8408 24.1913 40.613 30.6725C40.3938 31.3119 40.1911 31.9566 40.0047 32.6066C39.5666 32.4991 39.1266 32.3998 38.6847 32.3087C31.5867 30.8514 25.8697 31.8112 23.9894 35.0765C22.1864 38.2078 24.072 43.326 28.5749 48.4929C29.0215 49.0041 29.4807 49.5039 29.9526 49.9921C29.3963 50.5651 28.8696 51.1378 28.3786 51.7073C23.9848 56.8013 22.2071 61.8358 24.0072 64.9535C25.8662 68.1739 31.5028 69.2266 38.3634 67.8766C38.9194 67.7664 39.4723 67.6424 40.0221 67.5046C40.2235 68.2077 40.4445 68.9047 40.685 69.5956C42.9029 75.9468 46.3755 80.0015 49.976 80.0002C53.6943 79.998 57.4218 75.6415 59.6802 69.0239C59.8585 68.501 60.0274 67.9579 60.1874 67.3987C60.8977 67.5754 61.6125 67.7322 62.3319 67.8691C68.942 69.1197 74.1895 68.1361 75.9863 65.0161C77.8417 61.7933 75.9287 56.388 71.3231 51.1268ZM26.2106 36.3555C27.3681 34.3455 32.0403 33.5613 38.1688 34.8195C38.5605 34.9001 38.9589 34.9901 39.3639 35.0895C38.7656 37.7363 38.3434 40.4199 38.1002 43.1225C35.8889 44.6782 33.7806 46.3753 31.7885 48.2033C31.3496 47.7494 30.9224 47.2845 30.507 46.8086C26.6487 42.3815 25.124 38.2424 26.2106 36.3555ZM37.8706 53.5398C36.3389 52.38 34.9154 51.1918 33.6234 49.9968C34.9145 48.8092 36.3389 47.625 37.8674 46.4683C37.8125 47.6466 37.7853 48.8258 37.7858 50.0059C37.7866 51.1843 37.8148 52.3623 37.8706 53.5398ZM37.8687 65.3616C35.2685 65.9398 32.5841 66.0345 29.9496 65.641C29.2274 65.5848 28.5244 65.3811 27.884 65.0424C27.2437 64.7038 26.6796 64.2374 26.2266 63.6721C25.1344 61.7801 26.5619 57.7381 30.3195 53.3814C30.792 52.8354 31.2799 52.3037 31.7833 51.7862C33.7757 53.6238 35.8874 55.3276 38.1046 56.8864C38.3512 59.6236 38.7784 62.3415 39.3833 65.0224C38.8813 65.1479 38.3765 65.261 37.8687 65.3616ZM59.1721 41.2435C58.1659 40.6095 57.1473 39.9959 56.1163 39.4026C55.1017 38.8186 54.0749 38.2565 53.0359 37.7164C54.8149 36.9684 56.5636 36.3295 58.2518 35.809C58.6498 37.6039 58.957 39.4177 59.1721 41.2435ZM43.037 31.5056C44.9457 25.9522 47.7699 22.564 49.9476 22.5631C52.2668 22.562 55.2802 26.2179 57.2505 32.156C57.3786 32.5431 57.4995 32.9324 57.6135 33.3238C55.0249 34.1267 52.4922 35.1001 50.0321 36.2374C47.5822 35.0867 45.0574 34.1025 42.4751 33.2916C42.6477 32.6918 42.835 32.0965 43.037 31.5056ZM41.8359 35.777C43.5968 36.3314 45.3287 36.9742 47.0249 37.703C44.9232 38.7876 42.8759 39.969 40.8828 41.2472C41.1236 39.3332 41.444 37.4994 41.8359 35.777ZM40.8872 58.759C41.8811 59.3953 42.8895 60.008 43.9125 60.5972C44.956 61.198 46.0133 61.7736 47.0846 62.3239C45.3754 63.0779 43.6287 63.7437 41.8512 64.3187C41.4548 62.5724 41.1309 60.7064 40.8872 58.759ZM57.2543 68.1956C56.4562 70.737 55.1971 73.1097 53.54 75.1953C53.1305 75.7927 52.6027 76.3 51.9894 76.6855C51.3762 77.0709 50.6905 77.3265 49.9746 77.4365C47.79 77.4378 45.0016 74.1815 43.1048 68.7501C42.8814 68.108 42.6759 67.46 42.4883 66.8062C45.083 65.9691 47.618 64.957 50.0758 63.7771C52.5562 64.9218 55.109 65.9024 57.7179 66.7126C57.5755 67.2105 57.4209 67.7048 57.2543 68.1956ZM58.341 64.2229C56.6334 63.6949 54.8592 63.0454 53.0546 62.2864C54.0719 61.751 55.0966 61.1856 56.1287 60.5901C57.1878 59.9785 58.2199 59.3516 59.225 58.7094C59.0248 60.5612 58.7298 62.4014 58.341 64.2229ZM59.6799 49.9949C59.6821 51.8168 59.6252 53.6372 59.5092 55.4562C58.0312 56.4565 56.4708 57.4332 54.8472 58.3705C53.2304 59.304 51.6284 60.1618 50.057 60.9382C48.4034 60.1457 46.7816 59.2917 45.1917 58.3762C43.6108 57.4662 42.0661 56.4972 40.5577 55.4692C40.4198 53.6508 40.3503 51.829 40.3493 50.004C40.348 48.1803 40.4163 46.359 40.5535 44.5391C42.0311 43.53 43.5802 42.554 45.1818 41.6293C46.7908 40.7003 48.4128 39.8461 50.0259 39.0719C51.6592 39.8657 53.263 40.7163 54.8373 41.6238C56.4172 42.5318 57.9662 43.4905 59.4844 44.4999C59.6147 46.3288 59.6798 48.1604 59.6799 49.9949ZM62.55 34.7164C68.314 33.5952 72.66 34.3494 73.7488 36.235C74.9086 38.2439 73.2463 42.6805 69.0873 47.3541C68.8575 47.6119 68.6189 47.871 68.3719 48.131C66.3453 46.2992 64.1964 44.6074 61.94 43.0675C61.7123 40.3943 61.3059 37.7395 60.7236 35.1207C61.3443 34.968 61.9531 34.8332 62.55 34.7164ZM62.1604 46.3705C63.6824 47.4817 65.1457 48.6712 66.5445 49.934C65.1519 51.2176 63.6932 52.4276 62.1743 53.5589C62.2208 52.3711 62.2437 51.1827 62.243 49.9937C62.2424 48.7857 62.2149 47.5779 62.1604 46.3705ZM73.7647 63.7368C72.6743 65.6302 68.4611 66.4198 62.808 65.3503C62.1602 65.228 61.4955 65.0824 60.8138 64.9136C61.3821 62.2611 61.7704 59.5732 61.9762 56.8683C64.2288 55.3015 66.371 53.5815 68.3875 51.7206C68.7403 52.0872 69.0759 52.4521 69.3943 52.8153C71.1975 54.7759 72.6244 57.0515 73.6036 59.5288C73.9167 60.1819 74.0926 60.8923 74.1203 61.6161C74.148 62.3399 74.027 63.0616 73.7647 63.7368Z" fill="white"/>
<defs>
<linearGradient id="paint0_linear_402_9" x1="100" y1="65.5824" x2="-8.43047e-07" y2="65.5824" gradientUnits="userSpaceOnUse">
<stop stop-color="#4961DC"/>
<stop offset="1" stop-color="#6A98F0"/>
</linearGradient>
</defs>
</svg>
