<svg width="40" height="40" viewBox="0 0 40 40" fill="none" xmlns="http://www.w3.org/2000/svg">
<path d="M20 3.74463C16.0425 3.74479 12.2141 5.15315 9.19994 7.71771C6.18577 10.2823 4.1825 13.8357 3.54855 17.7421C2.9146 21.6485 3.69136 25.6531 5.73983 29.0392C7.7883 32.4254 10.9748 34.9721 14.7292 36.2238C15.5625 36.3696 15.875 35.8697 15.875 35.4321C15.875 35.0363 15.8542 33.7238 15.8542 32.328C11.6667 33.0988 10.5833 31.3072 10.25 30.3697C9.88012 29.4579 9.29379 28.6499 8.54166 28.0155C7.95833 27.703 7.12499 26.9321 8.52081 26.9113C9.05379 26.9692 9.56497 27.1546 10.011 27.452C10.4571 27.7494 10.8249 28.1499 11.0833 28.6196C11.3113 29.0291 11.6178 29.3896 11.9853 29.6804C12.3528 29.9713 12.7741 30.1867 13.225 30.3145C13.676 30.4422 14.1477 30.4797 14.6131 30.4248C15.0786 30.3699 15.5286 30.2237 15.9375 29.9946C16.0096 29.1473 16.3872 28.3551 17 27.7655C13.2917 27.3488 9.41666 25.9113 9.41666 19.5363C9.39324 17.8799 10.0045 16.2773 11.125 15.0572C10.6155 13.6175 10.6751 12.0377 11.2917 10.6405C11.2917 10.6405 12.6874 10.203 15.875 12.3488C18.6021 11.5988 21.4812 11.5988 24.2083 12.3488C27.3958 10.1822 28.7917 10.6405 28.7917 10.6405C29.4083 12.0376 29.4679 13.6176 28.9583 15.0572C30.0822 16.2752 30.694 17.8792 30.6667 19.5363C30.6667 25.9321 26.7708 27.3488 23.0625 27.7655C23.4602 28.1687 23.7666 28.6527 23.9607 29.1847C24.1548 29.7167 24.2322 30.2843 24.1875 30.8488C24.1875 33.078 24.1666 34.8696 24.1666 35.4322C24.1666 35.8697 24.4791 36.3905 25.3125 36.2238C29.0603 34.962 32.2376 32.4092 34.2773 29.0214C36.3171 25.6335 37.0865 21.631 36.4481 17.7284C35.8098 13.8257 33.8053 10.2769 30.7924 7.71548C27.7796 5.15405 23.9545 3.74669 20 3.74463V3.74463Z" fill="url(#paint0_linear_403_10)"/>
<defs>
<linearGradient id="paint0_linear_403_10" x1="36.6666" y1="20.0003" x2="3.33328" y2="20.0003" gradientUnits="userSpaceOnUse">
<stop stop-color="#4A63DC"/>
<stop offset="1" stop-color="#6996EF"/>
</linearGradient>
</defs>
</svg>
