<svg width="40" height="40" viewBox="0 0 40 40" fill="none" xmlns="http://www.w3.org/2000/svg">
<path d="M34.1167 3.33324H5.88332C5.56595 3.32883 5.25082 3.38699 4.95593 3.50438C4.66104 3.62177 4.39216 3.79611 4.16465 4.01743C3.93714 4.23875 3.75545 4.50271 3.62997 4.79426C3.50449 5.0858 3.43767 5.3992 3.43332 5.71657V34.2832C3.43767 34.6006 3.50449 34.914 3.62997 35.2056C3.75545 35.4971 3.93714 35.7611 4.16465 35.9824C4.39216 36.2037 4.66104 36.378 4.95593 36.4954C5.25082 36.6128 5.56595 36.671 5.88332 36.6666H34.1167C34.434 36.671 34.7492 36.6128 35.044 36.4954C35.3389 36.378 35.6078 36.2037 35.8353 35.9824C36.0628 35.7611 36.2445 35.4971 36.37 35.2056C36.4955 34.914 36.5623 34.6006 36.5667 34.2832V5.71657C36.5623 5.3992 36.4955 5.0858 36.37 4.79426C36.2445 4.50271 36.0628 4.23875 35.8353 4.01743C35.6078 3.79611 35.3389 3.62177 35.044 3.50438C34.7492 3.38699 34.434 3.32883 34.1167 3.33324V3.33324ZM13.4833 31.2332H8.48332V16.2332H13.4833V31.2332ZM10.9833 14.1332C10.2938 14.1332 9.63244 13.8593 9.14484 13.3717C8.65725 12.8841 8.38332 12.2228 8.38332 11.5332C8.38332 10.8437 8.65725 10.1824 9.14484 9.69476C9.63244 9.20717 10.2938 8.93324 10.9833 8.93324C11.3495 8.89172 11.7203 8.928 12.0714 9.03971C12.4226 9.15143 12.7462 9.33606 13.0211 9.58151C13.2959 9.82696 13.5159 10.1277 13.6664 10.464C13.817 10.8004 13.8948 11.1647 13.8948 11.5332C13.8948 11.9017 13.817 12.2661 13.6664 12.6024C13.5159 12.9388 13.2959 13.2395 13.0211 13.485C12.7462 13.7304 12.4226 13.9151 12.0714 14.0268C11.7203 14.1385 11.3495 14.1748 10.9833 14.1332V14.1332ZM31.5167 31.2332H26.5167V23.1832C26.5167 21.1666 25.8 19.8499 23.9833 19.8499C23.4211 19.854 22.8736 20.0304 22.4147 20.3552C21.9558 20.68 21.6075 21.1377 21.4167 21.6666C21.2862 22.0583 21.2297 22.4709 21.25 22.8832V31.2166H16.25C16.25 31.2166 16.25 17.5832 16.25 16.2166H21.25V18.3332C21.7042 17.5451 22.3648 16.8958 23.1607 16.4552C23.9566 16.0147 24.8576 15.7997 25.7667 15.8332C29.1 15.8332 31.5167 17.9832 31.5167 22.5999V31.2332Z" fill="url(#paint0_linear_403_11)"/>
<defs>
<linearGradient id="paint0_linear_403_11" x1="36.6667" y1="19.9997" x2="3.33332" y2="19.9997" gradientUnits="userSpaceOnUse">
<stop stop-color="#4961DC"/>
<stop offset="1" stop-color="#6894EE"/>
</linearGradient>
</defs>
</svg>
