<svg width="100" height="135" viewBox="0 0 100 135" fill="none" xmlns="http://www.w3.org/2000/svg">
<path d="M26.8807 131V119.364H29.6932V124.034H34.2784V119.364H37.0852V131H34.2784V126.324H29.6932V131H26.8807ZM38.7887 121.648V119.364H48.624V121.648H45.0956V131H42.3228V121.648H38.7887ZM50.3176 119.364H53.8005L56.7551 126.568H56.8914L59.846 119.364H63.3289V131H60.5903V123.852H60.4937L57.6982 130.926H55.9482L53.1528 123.812H53.0562V131H50.3176V119.364ZM65.4032 131V119.364H68.2157V128.716H73.0566V131H65.4032Z" fill="white"/>
<rect width="100" height="100" rx="8" fill="url(#paint0_linear_151_35)"/>
<path fill-rule="evenodd" clip-rule="evenodd" d="M29.138 73.065L23 21H77L70.859 73.059L49.97 78.849L29.138 73.065ZM41.549 44.565L40.967 38.025H65.402L65.972 31.641H33.992L35.714 50.952H57.845L57.104 59.232L49.982 61.158H49.976L42.866 59.238L42.41 54.147H35.996L36.89 64.173L49.97 67.803L63.071 64.173L64.667 46.281L64.823 44.568H41.549V44.565Z" fill="white"/>
<defs>
<linearGradient id="paint0_linear_151_35" x1="100" y1="50" x2="-8.43047e-07" y2="50" gradientUnits="userSpaceOnUse">
<stop stop-color="#4961DC"/>
<stop offset="1" stop-color="#6A98F0"/>
</linearGradient>
</defs>
</svg>
