<svg width="100" height="135" viewBox="0 0 100 135" fill="none" xmlns="http://www.w3.org/2000/svg">
<path d="M36.608 119.364H39.3807V127.409C39.3769 128.163 39.197 128.822 38.8409 129.386C38.4848 129.947 37.9924 130.383 37.3636 130.693C36.7386 131.004 36.0152 131.159 35.1932 131.159C34.4659 131.159 33.8049 131.032 33.2102 130.778C32.6193 130.525 32.1477 130.131 31.7955 129.597C31.447 129.062 31.2746 128.379 31.2784 127.545H34.0795C34.0909 127.845 34.1477 128.1 34.25 128.312C34.3561 128.521 34.5019 128.678 34.6875 128.784C34.8731 128.89 35.0947 128.943 35.3523 128.943C35.6212 128.943 35.8485 128.886 36.0341 128.773C36.2197 128.655 36.3598 128.483 36.4545 128.256C36.553 128.028 36.6042 127.746 36.608 127.409V119.364ZM43.9265 131.148C43.3697 131.148 42.8754 131.055 42.4436 130.869C42.0155 130.68 41.6765 130.396 41.4265 130.017C41.1803 129.634 41.0572 129.155 41.0572 128.58C41.0572 128.095 41.1424 127.686 41.3129 127.352C41.4834 127.019 41.7182 126.748 42.0174 126.54C42.3167 126.331 42.6614 126.174 43.0515 126.068C43.4417 125.958 43.8584 125.884 44.3015 125.847C44.7977 125.801 45.1974 125.754 45.5004 125.705C45.8034 125.652 46.0231 125.578 46.1595 125.483C46.2996 125.384 46.3697 125.246 46.3697 125.068V125.04C46.3697 124.748 46.2693 124.523 46.0686 124.364C45.8678 124.205 45.597 124.125 45.2561 124.125C44.8887 124.125 44.5932 124.205 44.3697 124.364C44.1462 124.523 44.0042 124.742 43.9436 125.023L41.3811 124.932C41.4568 124.402 41.6519 123.928 41.9663 123.511C42.2845 123.091 42.7201 122.761 43.2731 122.523C43.8299 122.28 44.4985 122.159 45.2788 122.159C45.8356 122.159 46.3489 122.225 46.8186 122.358C47.2883 122.487 47.6974 122.676 48.0459 122.926C48.3943 123.172 48.6633 123.475 48.8527 123.835C49.0459 124.195 49.1424 124.606 49.1424 125.068V131H46.5288V129.784H46.4606C46.3053 130.08 46.1065 130.33 45.864 130.534C45.6254 130.739 45.3432 130.892 45.0174 130.994C44.6955 131.097 44.3318 131.148 43.9265 131.148ZM44.7845 129.33C45.0837 129.33 45.3527 129.269 45.5913 129.148C45.8337 129.027 46.0269 128.86 46.1709 128.648C46.3148 128.432 46.3868 128.182 46.3868 127.898V127.068C46.3072 127.11 46.2106 127.148 46.097 127.182C45.9871 127.216 45.8659 127.248 45.7334 127.278C45.6008 127.309 45.4644 127.335 45.3243 127.358C45.1841 127.381 45.0496 127.402 44.9209 127.42C44.6595 127.462 44.436 127.527 44.2504 127.614C44.0686 127.701 43.9284 127.814 43.8299 127.955C43.7352 128.091 43.6879 128.254 43.6879 128.443C43.6879 128.731 43.7902 128.951 43.9947 129.102C44.203 129.254 44.4663 129.33 44.7845 129.33ZM59.3147 122.273L56.3204 131H53.1386L50.1499 122.273H53.0761L54.684 128.284H54.7749L56.3886 122.273H59.3147ZM62.9259 131.148C62.3691 131.148 61.8748 131.055 61.443 130.869C61.0149 130.68 60.6759 130.396 60.4259 130.017C60.1797 129.634 60.0566 129.155 60.0566 128.58C60.0566 128.095 60.1418 127.686 60.3123 127.352C60.4827 127.019 60.7176 126.748 61.0168 126.54C61.3161 126.331 61.6608 126.174 62.0509 126.068C62.4411 125.958 62.8577 125.884 63.3009 125.847C63.7971 125.801 64.1967 125.754 64.4998 125.705C64.8028 125.652 65.0225 125.578 65.1589 125.483C65.299 125.384 65.3691 125.246 65.3691 125.068V125.04C65.3691 124.748 65.2687 124.523 65.068 124.364C64.8672 124.205 64.5964 124.125 64.2555 124.125C63.888 124.125 63.5926 124.205 63.3691 124.364C63.1456 124.523 63.0036 124.742 62.943 125.023L60.3805 124.932C60.4562 124.402 60.6513 123.928 60.9657 123.511C61.2839 123.091 61.7195 122.761 62.2725 122.523C62.8293 122.28 63.4979 122.159 64.2782 122.159C64.835 122.159 65.3483 122.225 65.818 122.358C66.2877 122.487 66.6967 122.676 67.0452 122.926C67.3937 123.172 67.6627 123.475 67.852 123.835C68.0452 124.195 68.1418 124.606 68.1418 125.068V131H65.5282V129.784H65.46C65.3047 130.08 65.1058 130.33 64.8634 130.534C64.6248 130.739 64.3426 130.892 64.0168 130.994C63.6948 131.097 63.3312 131.148 62.9259 131.148ZM63.7839 129.33C64.0831 129.33 64.352 129.269 64.5907 129.148C64.8331 129.027 65.0263 128.86 65.1702 128.648C65.3142 128.432 65.3861 128.182 65.3861 127.898V127.068C65.3066 127.11 65.21 127.148 65.0964 127.182C64.9865 127.216 64.8653 127.248 64.7327 127.278C64.6002 127.309 64.4638 127.335 64.3236 127.358C64.1835 127.381 64.049 127.402 63.9202 127.42C63.6589 127.462 63.4354 127.527 63.2498 127.614C63.068 127.701 62.9278 127.814 62.8293 127.955C62.7346 128.091 62.6873 128.254 62.6873 128.443C62.6873 128.731 62.7895 128.951 62.9941 129.102C63.2024 129.254 63.4657 129.33 63.7839 129.33Z" fill="white"/>
<rect width="100" height="100" rx="8" fill="url(#paint0_linear_151_55)"/>
<path fill-rule="evenodd" clip-rule="evenodd" d="M76.9999 34.25V63.5H72.4999V34.25H63.4999C61.7097 34.25 59.9928 33.5388 58.727 32.273C57.4611 31.0071 56.7499 29.2902 56.7499 27.5V18.5H31.9999C30.8065 18.5 29.6619 18.9741 28.818 19.818C27.9741 20.6619 27.4999 21.8065 27.4999 23V63.5H22.9999V23C22.9999 20.6131 23.9482 18.3239 25.636 16.636C27.3238 14.9482 29.613 14 31.9999 14H56.7499L76.9999 34.25ZM20.8444 82.2875C20.5962 81.6164 20.4712 80.906 20.4754 80.1905H23.9179C23.9261 80.6163 24.039 81.0336 24.2464 81.4055C24.4536 81.7588 24.7535 82.0487 25.1136 82.2438C25.4737 82.4389 25.8803 82.5318 26.2894 82.5125C27.1444 82.5125 27.7744 82.265 28.1884 81.7745C28.6024 81.2795 28.8094 80.582 28.8094 79.6775V67.325H32.3644V79.5875C32.3644 81.5675 31.8334 83.0705 30.7579 84.11C29.6959 85.145 28.2199 85.6625 26.3299 85.6625C25.4593 85.6782 24.5931 85.5349 23.7739 85.2395C23.0831 84.9769 22.4569 84.5687 21.9379 84.0425C21.458 83.5379 21.0859 82.9407 20.8444 82.2875ZM38.7184 80.6945L37.3054 85.3205H33.7054L39.7444 67.325H43.9114L49.9234 85.3205H46.1434L44.7304 80.6945H38.7184ZM44.0194 78.0395L41.8144 70.7675H41.6569L39.4519 78.044H44.0194V78.0395ZM54.5584 85.3205H58.8424L64.8139 67.325H60.8629L56.8669 81.446H56.6959L52.6549 67.325H48.5284L54.5584 85.3205ZM68.4499 80.6945L67.0369 85.3205H63.4369L69.4759 67.325H73.6429L79.6549 85.3205H75.8749L74.4619 80.6945H68.4499ZM73.7509 78.0395L71.5459 70.7675H71.3884L69.1834 78.044H73.7509V78.0395Z" fill="white"/>
<defs>
<linearGradient id="paint0_linear_151_55" x1="100" y1="50" x2="-8.43047e-07" y2="50" gradientUnits="userSpaceOnUse">
<stop stop-color="#4961DC"/>
<stop offset="1" stop-color="#6A98F0"/>
</linearGradient>
</defs>
</svg>
