<svg width="100" height="135" viewBox="0 0 100 135" fill="none" xmlns="http://www.w3.org/2000/svg">
<path d="M26.7841 119.364V131H24.3977L19.767 124.284H19.6932V131H16.8807V119.364H19.3011L23.8807 126.068H23.9773V119.364H26.7841ZM32.9464 131.165C32.0298 131.165 31.2419 130.977 30.5828 130.602C29.9275 130.223 29.4218 129.697 29.0657 129.023C28.7135 128.345 28.5373 127.559 28.5373 126.665C28.5373 125.767 28.7135 124.981 29.0657 124.307C29.4218 123.629 29.9275 123.102 30.5828 122.727C31.2419 122.348 32.0298 122.159 32.9464 122.159C33.8631 122.159 34.6491 122.348 35.3044 122.727C35.9635 123.102 36.4691 123.629 36.8214 124.307C37.1775 124.981 37.3555 125.767 37.3555 126.665C37.3555 127.559 37.1775 128.345 36.8214 129.023C36.4691 129.697 35.9635 130.223 35.3044 130.602C34.6491 130.977 33.8631 131.165 32.9464 131.165ZM32.9635 129.068C33.2968 129.068 33.579 128.966 33.8101 128.761C34.0411 128.557 34.2173 128.273 34.3385 127.909C34.4635 127.545 34.526 127.125 34.526 126.648C34.526 126.163 34.4635 125.739 34.3385 125.375C34.2173 125.011 34.0411 124.727 33.8101 124.523C33.579 124.318 33.2968 124.216 32.9635 124.216C32.6188 124.216 32.3271 124.318 32.0885 124.523C31.8536 124.727 31.6737 125.011 31.5487 125.375C31.4275 125.739 31.3669 126.163 31.3669 126.648C31.3669 127.125 31.4275 127.545 31.5487 127.909C31.6737 128.273 31.8536 128.557 32.0885 128.761C32.3271 128.966 32.6188 129.068 32.9635 129.068ZM42.2863 131.125C41.6424 131.125 41.0571 130.958 40.5306 130.625C40.0041 130.292 39.5837 129.792 39.2693 129.125C38.9549 128.458 38.7977 127.631 38.7977 126.642C38.7977 125.616 38.9605 124.771 39.2863 124.108C39.6121 123.445 40.0382 122.955 40.5647 122.636C41.095 122.318 41.6651 122.159 42.2749 122.159C42.7333 122.159 43.1253 122.239 43.4511 122.398C43.7768 122.553 44.0458 122.754 44.2579 123C44.47 123.246 44.631 123.502 44.7409 123.767H44.7977V119.364H47.5761V131H44.8261V129.585H44.7409C44.6234 129.854 44.4568 130.106 44.2409 130.341C44.0249 130.576 43.7541 130.765 43.4284 130.909C43.1064 131.053 42.7257 131.125 42.2863 131.125ZM43.2522 128.96C43.5893 128.96 43.8772 128.866 44.1159 128.676C44.3545 128.483 44.5382 128.212 44.667 127.864C44.7958 127.515 44.8602 127.106 44.8602 126.636C44.8602 126.159 44.7958 125.748 44.667 125.403C44.542 125.059 44.3583 124.794 44.1159 124.608C43.8772 124.422 43.5893 124.33 43.2522 124.33C42.9075 124.33 42.6159 124.424 42.3772 124.614C42.1386 124.803 41.9568 125.07 41.8318 125.415C41.7105 125.759 41.6499 126.167 41.6499 126.636C41.6499 127.106 41.7124 127.515 41.8374 127.864C41.9624 128.212 42.1424 128.483 42.3772 128.676C42.6159 128.866 42.9075 128.96 43.2522 128.96ZM53.7327 131.165C52.8198 131.165 52.032 130.985 51.3691 130.625C50.71 130.261 50.2024 129.744 49.8464 129.074C49.4941 128.4 49.318 127.598 49.318 126.67C49.318 125.769 49.496 124.981 49.852 124.307C50.2081 123.629 50.71 123.102 51.3577 122.727C52.0055 122.348 52.7687 122.159 53.6475 122.159C54.2687 122.159 54.8369 122.256 55.352 122.449C55.8672 122.642 56.3123 122.928 56.6873 123.307C57.0623 123.686 57.3539 124.153 57.5623 124.71C57.7706 125.263 57.8748 125.898 57.8748 126.614V127.307H50.2895V125.693H55.2895C55.2858 125.398 55.2157 125.134 55.0793 124.903C54.943 124.672 54.7555 124.492 54.5168 124.364C54.282 124.231 54.0111 124.165 53.7043 124.165C53.3937 124.165 53.1153 124.235 52.8691 124.375C52.6229 124.511 52.4278 124.699 52.2839 124.938C52.1399 125.172 52.0642 125.439 52.0566 125.739V127.381C52.0566 127.737 52.1267 128.049 52.2668 128.318C52.407 128.583 52.6058 128.79 52.8634 128.938C53.121 129.085 53.4278 129.159 53.7839 129.159C54.0301 129.159 54.2536 129.125 54.4543 129.057C54.6551 128.989 54.8274 128.888 54.9714 128.756C55.1153 128.623 55.2233 128.46 55.2952 128.267L57.8464 128.341C57.7403 128.913 57.5073 129.411 57.1475 129.835C56.7914 130.256 56.3236 130.583 55.7441 130.818C55.1645 131.049 54.4941 131.165 53.7327 131.165ZM61.1763 131.165C60.7672 131.165 60.4168 131.021 60.1252 130.733C59.8373 130.445 59.6952 130.097 59.699 129.688C59.6952 129.286 59.8373 128.943 60.1252 128.659C60.4168 128.371 60.7672 128.227 61.1763 128.227C61.5627 128.227 61.9036 128.371 62.199 128.659C62.4983 128.943 62.6498 129.286 62.6536 129.688C62.6498 129.96 62.5778 130.208 62.4377 130.432C62.3013 130.655 62.1214 130.833 61.8979 130.966C61.6782 131.098 61.4377 131.165 61.1763 131.165ZM69.5361 119.364H72.3088V127.409C72.305 128.163 72.1251 128.822 71.769 129.386C71.413 129.947 70.9205 130.383 70.2918 130.693C69.6668 131.004 68.9433 131.159 68.1213 131.159C67.394 131.159 66.733 131.032 66.1384 130.778C65.5474 130.525 65.0759 130.131 64.7236 129.597C64.3751 129.062 64.2027 128.379 64.2065 127.545H67.0077C67.019 127.845 67.0759 128.1 67.1781 128.312C67.2842 128.521 67.43 128.678 67.6156 128.784C67.8012 128.89 68.0228 128.943 68.2804 128.943C68.5493 128.943 68.7766 128.886 68.9622 128.773C69.1478 128.655 69.288 128.483 69.3827 128.256C69.4812 128.028 69.5323 127.746 69.5361 127.409V119.364ZM80.6842 122.852C80.6463 122.436 80.4778 122.112 80.1785 121.881C79.8831 121.646 79.4607 121.528 78.9115 121.528C78.5478 121.528 78.2448 121.576 78.0024 121.67C77.76 121.765 77.5781 121.896 77.4569 122.062C77.3357 122.225 77.2732 122.413 77.2694 122.625C77.2619 122.799 77.2959 122.953 77.3717 123.085C77.4512 123.218 77.5649 123.335 77.7126 123.438C77.8641 123.536 78.0459 123.623 78.2581 123.699C78.4702 123.775 78.7088 123.841 78.974 123.898L79.974 124.125C80.5497 124.25 81.0573 124.417 81.4967 124.625C81.9399 124.833 82.3111 125.081 82.6103 125.369C82.9134 125.657 83.1425 125.989 83.2978 126.364C83.4531 126.739 83.5327 127.159 83.5365 127.625C83.5327 128.36 83.3471 128.991 82.9797 129.517C82.6122 130.044 82.0838 130.447 81.3944 130.727C80.7088 131.008 79.8812 131.148 78.9115 131.148C77.938 131.148 77.0895 131.002 76.366 130.71C75.6425 130.419 75.08 129.975 74.6785 129.381C74.277 128.786 74.0706 128.034 74.0592 127.125H76.7524C76.7751 127.5 76.8755 127.812 77.0535 128.062C77.2316 128.312 77.4759 128.502 77.7865 128.631C78.1009 128.759 78.4645 128.824 78.8774 128.824C79.2562 128.824 79.5781 128.773 79.8433 128.67C80.1122 128.568 80.3187 128.426 80.4626 128.244C80.6066 128.062 80.6804 127.854 80.6842 127.619C80.6804 127.4 80.6122 127.212 80.4797 127.057C80.3471 126.898 80.1425 126.761 79.866 126.648C79.5933 126.53 79.2448 126.422 78.8206 126.324L77.6047 126.04C76.5971 125.809 75.8035 125.436 75.224 124.92C74.6444 124.402 74.3566 123.701 74.3603 122.818C74.3566 122.098 74.5497 121.468 74.9399 120.926C75.33 120.384 75.8698 119.962 76.5592 119.659C77.2486 119.356 78.0346 119.205 78.9172 119.205C79.8187 119.205 80.6009 119.358 81.2637 119.665C81.9304 119.968 82.4475 120.394 82.8149 120.943C83.1823 121.492 83.3698 122.129 83.3774 122.852H80.6842Z" fill="white"/>
<rect width="100" height="100" rx="8" fill="url(#paint0_linear_151_33)"/>
<path d="M57.434 58.6487C55.1782 58.8685 52.9058 58.4548 50.8722 57.4539C50.4116 57.0854 50.0314 56.6263 49.7551 56.105C49.4788 55.5838 49.3123 55.0115 49.2658 54.4234C49.2649 54.3354 49.2465 54.2484 49.2117 54.1676C49.177 54.0867 49.1265 54.0136 49.0633 53.9523C49.0001 53.8911 48.9253 53.843 48.8434 53.8109C48.7614 53.7788 48.674 53.7632 48.586 53.7651C47.6362 53.7535 46.6866 53.7561 45.737 53.7638C45.5711 53.7469 45.4051 53.7961 45.2752 53.9007C45.1452 54.0053 45.0618 54.1569 45.0429 54.3226C44.9887 55.3545 45.1631 56.3855 45.5537 57.3421C45.9442 58.2987 46.5412 59.1572 47.302 59.8563C49.2226 61.355 51.5546 62.2322 53.9868 62.3709C56.5211 62.6648 59.0859 62.5559 61.5861 62.0482C63.5059 61.6901 65.266 60.7416 66.6208 59.335C67.3697 58.4116 67.8717 57.3129 68.0795 56.1423C68.2873 54.9717 68.1941 53.7674 67.8088 52.6426C67.4851 51.8498 66.9842 51.1416 66.3443 50.5724C65.7045 50.0032 64.9427 49.5881 64.1176 49.359C60.2753 48.0108 56.1246 48.1128 52.2076 47.0883C51.5275 46.8743 50.6966 46.6419 50.3936 45.922C50.2184 45.4153 50.2064 44.8665 50.3593 44.3527C50.5123 43.8389 50.8224 43.386 51.2461 43.0576C52.476 42.3547 53.8765 42.006 55.2924 42.0502C57.2139 41.8693 59.1511 42.1465 60.9448 42.859C61.4837 43.1759 61.9471 43.6063 62.3029 44.1203C62.6587 44.6343 62.8983 45.2196 63.0051 45.8355C63.0103 46.0173 63.0832 46.1906 63.2095 46.3214C63.3358 46.4522 63.5065 46.531 63.6879 46.5425C64.6309 46.5617 65.5743 46.5476 66.5173 46.5489C66.6808 46.5685 66.8459 46.5283 66.9822 46.4359C67.1185 46.3434 67.2169 46.2049 67.2592 46.0457C67.2676 44.7738 66.9436 43.5217 66.3191 42.4135C65.6947 41.3053 64.7916 40.3795 63.6993 39.7277C60.6843 38.3363 57.3378 37.8242 54.0447 38.2504V38.2502C51.6319 38.3491 49.3267 39.2754 47.5162 40.8733C46.6851 41.7692 46.1222 42.8804 45.8918 44.0805C45.6614 45.2806 45.7728 46.5213 46.2131 47.6613C46.5558 48.4249 47.0601 49.1051 47.6911 49.655C48.3222 50.2049 49.0649 50.6115 49.8682 50.8466C53.6977 52.2298 57.8948 51.7859 61.7615 53.009C62.515 53.2647 63.3924 53.6556 63.6233 54.4942C63.7473 54.9968 63.7379 55.5231 63.5961 56.021C63.4542 56.5188 63.1847 56.971 62.8143 57.3327C61.2062 58.3317 59.3217 58.7926 57.434 58.6487ZM74.8907 33.3126C67.414 29.0846 59.9355 24.8604 52.4554 20.64C51.7048 20.2203 50.8593 20 49.9994 20C49.1395 20 48.2939 20.2203 47.5434 20.64C40.0923 24.8476 32.6409 29.055 25.189 33.2622C24.4641 33.6574 23.8581 34.2393 23.4339 34.9475C23.0096 35.6558 22.7826 36.4648 22.7764 37.2904V62.7131C22.7884 63.5537 23.0276 64.3754 23.4687 65.0911C23.9098 65.8067 24.5364 66.3897 25.282 66.7781C27.4226 67.9432 29.5022 69.227 31.6816 70.3146C32.9394 70.987 34.3365 71.3575 35.7623 71.3967C37.188 71.4359 38.6033 71.1427 39.8962 70.5404C40.8636 69.9344 41.6508 69.08 42.1757 68.0663C42.7006 67.0526 42.9441 65.9167 42.8807 64.7769C42.8973 56.3869 42.8832 47.9964 42.8871 39.6061C42.9017 39.5144 42.8967 39.4206 42.8726 39.3309C42.8484 39.2413 42.8056 39.1577 42.7469 39.0857C42.6882 39.0137 42.6149 38.955 42.5319 38.9132C42.4489 38.8715 42.3581 38.8478 42.2653 38.8437C41.3131 38.8283 40.3595 38.8347 39.4073 38.8411C39.3192 38.8332 39.2303 38.844 39.1467 38.8729C39.063 38.9017 38.9863 38.9479 38.9217 39.0084C38.8571 39.069 38.8061 39.1425 38.7719 39.2241C38.7377 39.3057 38.7212 39.3937 38.7233 39.4822C38.7105 47.8184 38.7259 56.1571 38.7157 64.4946C38.7178 65.0701 38.544 65.6325 38.2174 66.1063C37.8909 66.5802 37.4272 66.9429 36.8887 67.1458C36.2685 67.3291 35.6166 67.3795 34.9757 67.2937C34.3347 67.2079 33.719 66.9879 33.1689 66.6479C31.1858 65.5279 29.2028 64.408 27.2199 63.2883C27.0885 63.226 26.9793 63.1249 26.9071 62.9987C26.8349 62.8725 26.8031 62.7272 26.816 62.5824C26.816 54.1947 26.816 45.8075 26.816 37.4206C26.8022 37.2575 26.8403 37.0941 26.9249 36.9539C27.0095 36.8137 27.1362 36.7039 27.287 36.64C34.7136 32.4573 42.1388 28.2701 49.5626 24.0786C49.6915 23.9905 49.8441 23.9435 50.0002 23.9437C50.1563 23.944 50.3088 23.9914 50.4374 24.0799C57.8638 28.2639 65.2898 32.4495 72.7155 36.6365C72.8656 36.7021 72.9914 36.813 73.0753 36.9536C73.1593 37.0942 73.1973 37.2575 73.1839 37.4207C73.1826 45.8069 73.1818 54.1937 73.1813 62.5813C73.1945 62.7267 73.1634 62.8727 73.0923 63.0002C73.0211 63.1278 72.9132 63.2309 72.7825 63.2961C65.4697 67.4312 58.1529 71.5603 50.8322 75.6834C50.4825 75.8782 50.0685 76.1917 49.6594 75.9557C47.7421 74.8704 45.8483 73.743 43.9374 72.6475C43.8397 72.5728 43.7219 72.5289 43.5992 72.5215C43.4764 72.5142 43.3543 72.5436 43.2483 72.6061C42.4067 73.0993 41.5207 73.5127 40.6021 73.841C40.1879 74.0087 39.6783 74.0565 39.3932 74.4406C39.7566 74.836 40.1969 75.1531 40.6871 75.3725C42.9219 76.6665 45.1579 77.9593 47.3951 79.251C48.135 79.7157 48.9859 79.9735 49.8593 79.9978C50.7327 80.0221 51.5966 79.8119 52.3612 79.389C59.8134 75.187 67.2653 70.9831 74.7168 66.7772C75.4618 66.3882 76.0879 65.8052 76.5291 65.0899C76.9704 64.3745 77.2103 63.5534 77.2237 62.713V37.2904C77.2174 36.4811 76.9986 35.6876 76.5892 34.9895C76.1798 34.2914 75.5941 33.7131 74.8908 33.3126H74.8907Z" fill="white"/>
<defs>
<linearGradient id="paint0_linear_151_33" x1="100" y1="50" x2="-8.43047e-07" y2="50" gradientUnits="userSpaceOnUse">
<stop stop-color="#4961DC"/>
<stop offset="1" stop-color="#6A98F0"/>
</linearGradient>
</defs>
</svg>
